G04 MADE WITH FRITZING*
G04 WWW.FRITZING.ORG*
G04 DOUBLE SIDED*
G04 HOLES PLATED*
G04 CONTOUR ON CENTER OF CONTOUR VECTOR*
%ASAXBY*%
%FSLAX23Y23*%
%MOIN*%
%OFA0B0*%
%SFA1.0B1.0*%
%ADD10C,0.080000*%
%ADD11C,0.148425*%
%ADD12C,0.085361*%
%ADD13C,0.104488*%
%LNMASK0*%
G90*
G70*
G54D10*
X1488Y1283D03*
G54D11*
X1788Y1233D03*
G54D10*
X1488Y1183D03*
X1488Y1083D03*
X1488Y983D03*
X1488Y883D03*
X1488Y783D03*
G54D11*
X1788Y733D03*
G54D10*
X1488Y683D03*
G54D12*
X188Y183D03*
X188Y283D03*
X188Y383D03*
X188Y483D03*
X188Y583D03*
X188Y683D03*
X188Y783D03*
X188Y883D03*
X188Y983D03*
X188Y1083D03*
X188Y1183D03*
X188Y1283D03*
X188Y1383D03*
X188Y1483D03*
X188Y1584D03*
X188Y1683D03*
X188Y1783D03*
X188Y1883D03*
X188Y1983D03*
X188Y2084D03*
X88Y2084D03*
X88Y1983D03*
X88Y1883D03*
X88Y1783D03*
X88Y1683D03*
X88Y1584D03*
X88Y1483D03*
X88Y1383D03*
X88Y1283D03*
X88Y1183D03*
X88Y1083D03*
X88Y983D03*
X88Y883D03*
X88Y783D03*
X88Y683D03*
X88Y583D03*
X88Y483D03*
X88Y383D03*
X88Y283D03*
X88Y183D03*
G54D13*
X988Y583D03*
X388Y1783D03*
X588Y1183D03*
X788Y1083D03*
X1188Y1483D03*
X1188Y883D03*
G04 End of Mask0*
M02*