; NON-PLATED HOLES START AT T1
; THROUGH (PLATED) HOLES START AT T100
M48
INCH
T100C0.040639
T101C0.031496
T102C0.098425
T103C0.039370
%
T100
X000875Y016834
X001875Y007834
X000875Y010834
X001875Y011834
X001875Y010834
X000875Y006834
X000875Y009834
X001875Y004834
X001875Y019834
X000875Y008834
X000875Y005834
X001875Y020835
X000875Y001834
X001875Y008834
X001875Y005834
X000875Y004834
X001875Y006834
X001875Y015835
X000875Y017834
X001875Y009834
X001875Y017834
X000875Y019834
X001875Y013834
X000875Y014834
X000875Y012834
X000875Y015835
X000875Y020835
X001875Y016834
X001875Y001834
X000875Y002834
X001875Y012834
X000875Y018834
X000875Y013834
X001875Y014834
X000875Y003834
X000875Y007834
X001875Y003834
X000875Y011834
X001875Y018834
X001875Y002834
T101
X007875Y010834
X009875Y005834
X003875Y017834
X011875Y014834
X005875Y011834
X011875Y008834
T102
X017875Y007334
X017875Y012334
T103
X014875Y009834
X014875Y010834
X014875Y006834
X014875Y011834
X014875Y008834
X014875Y012834
X014875Y007834
T00
M30
