G04 MADE WITH FRITZING*
G04 WWW.FRITZING.ORG*
G04 DOUBLE SIDED*
G04 HOLES PLATED*
G04 CONTOUR ON CENTER OF CONTOUR VECTOR*
%ASAXBY*%
%FSLAX23Y23*%
%MOIN*%
%OFA0B0*%
%SFA1.0B1.0*%
%ADD10C,0.070000*%
%ADD11C,0.138425*%
%ADD12C,0.075361*%
%ADD13C,0.094488*%
%ADD14C,0.024000*%
%LNCOPPER0*%
G90*
G70*
G54D10*
X1488Y1283D03*
G54D11*
X1788Y1233D03*
G54D10*
X1488Y1183D03*
X1488Y1083D03*
X1488Y983D03*
X1488Y883D03*
X1488Y783D03*
G54D11*
X1788Y733D03*
G54D10*
X1488Y683D03*
G54D12*
X188Y183D03*
X188Y283D03*
X188Y383D03*
X188Y483D03*
X188Y583D03*
X188Y683D03*
X188Y783D03*
X188Y883D03*
X188Y983D03*
X188Y1083D03*
X188Y1183D03*
X188Y1283D03*
X188Y1383D03*
X188Y1483D03*
X188Y1584D03*
X188Y1683D03*
X188Y1783D03*
X188Y1883D03*
X188Y1983D03*
X188Y2084D03*
X88Y2084D03*
X88Y1983D03*
X88Y1883D03*
X88Y1783D03*
X88Y1683D03*
X88Y1584D03*
X88Y1483D03*
X88Y1383D03*
X88Y1283D03*
X88Y1183D03*
X88Y1083D03*
X88Y983D03*
X88Y883D03*
X88Y783D03*
X88Y683D03*
X88Y583D03*
X88Y483D03*
X88Y383D03*
X88Y283D03*
X88Y183D03*
G54D13*
X988Y583D03*
X388Y1783D03*
X588Y1183D03*
X788Y1083D03*
X1188Y1483D03*
X1188Y883D03*
G54D14*
X1457Y1183D02*
X614Y1183D01*
D02*
X1457Y983D02*
X987Y981D01*
D02*
X987Y981D02*
X988Y610D01*
D02*
X1457Y1083D02*
X814Y1083D01*
D02*
X785Y1784D02*
X414Y1783D01*
D02*
X785Y1284D02*
X785Y1784D01*
D02*
X1457Y1283D02*
X785Y1284D01*
D02*
X1214Y883D02*
X1457Y883D01*
D02*
X1214Y1484D02*
X1487Y1486D01*
D02*
X1487Y1486D02*
X1487Y1314D01*
G04 End of Copper0*
M02*