G04 MADE WITH FRITZING*
G04 WWW.FRITZING.ORG*
G04 DOUBLE SIDED*
G04 HOLES PLATED*
G04 CONTOUR ON CENTER OF CONTOUR VECTOR*
%ASAXBY*%
%FSLAX23Y23*%
%MOIN*%
%OFA0B0*%
%SFA1.0B1.0*%
%ADD10C,0.165480X0.14948*%
%ADD11R,2.055080X2.209630X2.039080X2.193630*%
%ADD12C,0.008000*%
%ADD13R,0.001000X0.001000*%
%LNSILK1*%
G90*
G70*
G54D10*
X1788Y1233D03*
X1788Y733D03*
G54D12*
X4Y2206D02*
X2051Y2206D01*
X2051Y4D01*
X4Y4D01*
X4Y2206D01*
D02*
G54D13*
X11Y2210D02*
X20Y2210D01*
X11Y2209D02*
X20Y2209D01*
X11Y2208D02*
X20Y2208D01*
X11Y2207D02*
X20Y2207D01*
X11Y2206D02*
X20Y2206D01*
X11Y2205D02*
X20Y2205D01*
X11Y2204D02*
X20Y2204D01*
X11Y2203D02*
X20Y2203D01*
X11Y2202D02*
X20Y2202D01*
X11Y2201D02*
X20Y2201D01*
X11Y2200D02*
X20Y2200D01*
X11Y2199D02*
X20Y2199D01*
X11Y2198D02*
X20Y2198D01*
X11Y2197D02*
X20Y2197D01*
X11Y2196D02*
X20Y2196D01*
X11Y2195D02*
X20Y2195D01*
X11Y2194D02*
X20Y2194D01*
X11Y2193D02*
X20Y2193D01*
X11Y2192D02*
X20Y2192D01*
X11Y2191D02*
X20Y2191D01*
X11Y2190D02*
X20Y2190D01*
X11Y2189D02*
X20Y2189D01*
X11Y2188D02*
X20Y2188D01*
X11Y2187D02*
X20Y2187D01*
X11Y2186D02*
X20Y2186D01*
X11Y2185D02*
X20Y2185D01*
X11Y2184D02*
X20Y2184D01*
X11Y2183D02*
X20Y2183D01*
X11Y2182D02*
X20Y2182D01*
X11Y2181D02*
X20Y2181D01*
X11Y2180D02*
X20Y2180D01*
X11Y2179D02*
X20Y2179D01*
X11Y2178D02*
X20Y2178D01*
X11Y2177D02*
X20Y2177D01*
X11Y2176D02*
X20Y2176D01*
X11Y2175D02*
X20Y2175D01*
X11Y2174D02*
X20Y2174D01*
X11Y2173D02*
X20Y2173D01*
X11Y2172D02*
X20Y2172D01*
X11Y2171D02*
X20Y2171D01*
X11Y2170D02*
X20Y2170D01*
X11Y2169D02*
X20Y2169D01*
X11Y2168D02*
X20Y2168D01*
X11Y2167D02*
X20Y2167D01*
X11Y2166D02*
X20Y2166D01*
X11Y2165D02*
X20Y2165D01*
X11Y2164D02*
X20Y2164D01*
X11Y2163D02*
X20Y2163D01*
X11Y2162D02*
X20Y2162D01*
X11Y2161D02*
X20Y2161D01*
X11Y2160D02*
X20Y2160D01*
X11Y2159D02*
X20Y2159D01*
X11Y2158D02*
X20Y2158D01*
X11Y2157D02*
X20Y2157D01*
X11Y2156D02*
X20Y2156D01*
X11Y2155D02*
X20Y2155D01*
X11Y2154D02*
X20Y2154D01*
X11Y2153D02*
X20Y2153D01*
X11Y2152D02*
X20Y2152D01*
X11Y2151D02*
X20Y2151D01*
X11Y2150D02*
X20Y2150D01*
X11Y2149D02*
X20Y2149D01*
X11Y2148D02*
X20Y2148D01*
X11Y2147D02*
X20Y2147D01*
X11Y2146D02*
X20Y2146D01*
X11Y2145D02*
X20Y2145D01*
X11Y2144D02*
X20Y2144D01*
X11Y2143D02*
X20Y2143D01*
X11Y2142D02*
X20Y2142D01*
X11Y2141D02*
X20Y2141D01*
X11Y2140D02*
X20Y2140D01*
X11Y2139D02*
X20Y2139D01*
X11Y2138D02*
X20Y2138D01*
X11Y2137D02*
X20Y2137D01*
X11Y2136D02*
X20Y2136D01*
X11Y2135D02*
X20Y2135D01*
X11Y2134D02*
X20Y2134D01*
X11Y2133D02*
X20Y2133D01*
X11Y2132D02*
X20Y2132D01*
X11Y2131D02*
X20Y2131D01*
X11Y2130D02*
X20Y2130D01*
X11Y2129D02*
X20Y2129D01*
X11Y2128D02*
X20Y2128D01*
X11Y2127D02*
X20Y2127D01*
X11Y2126D02*
X20Y2126D01*
X11Y2125D02*
X20Y2125D01*
X11Y2124D02*
X20Y2124D01*
X11Y2123D02*
X20Y2123D01*
X11Y2122D02*
X20Y2122D01*
X11Y2121D02*
X20Y2121D01*
X11Y2120D02*
X20Y2120D01*
X11Y2119D02*
X20Y2119D01*
X11Y2118D02*
X20Y2118D01*
X11Y2117D02*
X20Y2117D01*
X11Y2116D02*
X20Y2116D01*
X11Y2115D02*
X20Y2115D01*
X11Y2114D02*
X20Y2114D01*
X11Y2113D02*
X20Y2113D01*
X11Y2112D02*
X20Y2112D01*
X11Y2111D02*
X20Y2111D01*
X11Y2110D02*
X20Y2110D01*
X11Y2109D02*
X20Y2109D01*
X11Y2108D02*
X20Y2108D01*
X11Y2107D02*
X20Y2107D01*
X11Y2106D02*
X20Y2106D01*
X11Y2105D02*
X20Y2105D01*
X11Y2104D02*
X20Y2104D01*
X11Y2103D02*
X20Y2103D01*
X11Y2102D02*
X20Y2102D01*
X11Y2101D02*
X20Y2101D01*
X11Y2100D02*
X20Y2100D01*
X11Y2099D02*
X20Y2099D01*
X11Y2098D02*
X20Y2098D01*
X11Y2097D02*
X20Y2097D01*
X11Y2096D02*
X20Y2096D01*
X11Y2095D02*
X20Y2095D01*
X11Y2094D02*
X20Y2094D01*
X11Y2093D02*
X20Y2093D01*
X11Y2092D02*
X20Y2092D01*
X11Y2091D02*
X20Y2091D01*
X11Y2090D02*
X20Y2090D01*
X11Y2089D02*
X20Y2089D01*
X11Y2088D02*
X20Y2088D01*
X11Y2087D02*
X20Y2087D01*
X11Y2086D02*
X20Y2086D01*
X11Y2085D02*
X20Y2085D01*
X11Y2084D02*
X20Y2084D01*
X11Y2083D02*
X20Y2083D01*
X11Y2082D02*
X20Y2082D01*
X11Y2081D02*
X20Y2081D01*
X11Y2080D02*
X20Y2080D01*
X11Y2079D02*
X20Y2079D01*
X11Y2078D02*
X20Y2078D01*
X11Y2077D02*
X20Y2077D01*
X11Y2076D02*
X20Y2076D01*
X11Y2075D02*
X20Y2075D01*
X11Y2074D02*
X20Y2074D01*
X11Y2073D02*
X20Y2073D01*
X11Y2072D02*
X20Y2072D01*
X11Y2071D02*
X20Y2071D01*
X11Y2070D02*
X20Y2070D01*
X11Y2069D02*
X20Y2069D01*
X11Y2068D02*
X20Y2068D01*
X11Y2067D02*
X20Y2067D01*
X11Y2066D02*
X20Y2066D01*
X11Y2065D02*
X20Y2065D01*
X11Y2064D02*
X20Y2064D01*
X11Y2063D02*
X20Y2063D01*
X11Y2062D02*
X20Y2062D01*
X11Y2061D02*
X20Y2061D01*
X11Y2060D02*
X20Y2060D01*
X11Y2059D02*
X20Y2059D01*
X11Y2058D02*
X20Y2058D01*
X11Y2057D02*
X20Y2057D01*
X11Y2056D02*
X20Y2056D01*
X11Y2055D02*
X20Y2055D01*
X11Y2054D02*
X20Y2054D01*
X11Y2053D02*
X20Y2053D01*
X11Y2052D02*
X20Y2052D01*
X11Y2051D02*
X20Y2051D01*
X11Y2050D02*
X20Y2050D01*
X11Y2049D02*
X20Y2049D01*
X11Y2048D02*
X20Y2048D01*
X11Y2047D02*
X20Y2047D01*
X11Y2046D02*
X20Y2046D01*
X11Y2045D02*
X20Y2045D01*
X11Y2044D02*
X20Y2044D01*
X11Y2043D02*
X20Y2043D01*
X11Y2042D02*
X20Y2042D01*
X11Y2041D02*
X20Y2041D01*
X11Y2040D02*
X20Y2040D01*
X11Y2039D02*
X20Y2039D01*
X11Y2038D02*
X20Y2038D01*
X11Y2037D02*
X20Y2037D01*
X11Y2036D02*
X20Y2036D01*
X11Y2035D02*
X20Y2035D01*
X11Y2034D02*
X20Y2034D01*
X11Y2033D02*
X20Y2033D01*
X11Y2032D02*
X20Y2032D01*
X11Y2031D02*
X20Y2031D01*
X11Y2030D02*
X20Y2030D01*
X11Y2029D02*
X20Y2029D01*
X11Y2028D02*
X20Y2028D01*
X11Y2027D02*
X20Y2027D01*
X11Y2026D02*
X20Y2026D01*
X11Y2025D02*
X20Y2025D01*
X11Y2024D02*
X20Y2024D01*
X11Y2023D02*
X20Y2023D01*
X11Y2022D02*
X20Y2022D01*
X11Y2021D02*
X20Y2021D01*
X11Y2020D02*
X20Y2020D01*
X11Y2019D02*
X20Y2019D01*
X11Y2018D02*
X20Y2018D01*
X11Y2017D02*
X20Y2017D01*
X11Y2016D02*
X20Y2016D01*
X11Y2015D02*
X20Y2015D01*
X11Y2014D02*
X20Y2014D01*
X11Y2013D02*
X20Y2013D01*
X11Y2012D02*
X20Y2012D01*
X11Y2011D02*
X20Y2011D01*
X11Y2010D02*
X20Y2010D01*
X11Y2009D02*
X20Y2009D01*
X11Y2008D02*
X20Y2008D01*
X11Y2007D02*
X20Y2007D01*
X11Y2006D02*
X20Y2006D01*
X11Y2005D02*
X20Y2005D01*
X11Y2004D02*
X20Y2004D01*
X11Y2003D02*
X20Y2003D01*
X11Y2002D02*
X20Y2002D01*
X11Y2001D02*
X20Y2001D01*
X11Y2000D02*
X20Y2000D01*
X11Y1999D02*
X20Y1999D01*
X11Y1998D02*
X20Y1998D01*
X11Y1997D02*
X20Y1997D01*
X11Y1996D02*
X20Y1996D01*
X11Y1995D02*
X20Y1995D01*
X11Y1994D02*
X20Y1994D01*
X11Y1993D02*
X20Y1993D01*
X11Y1992D02*
X20Y1992D01*
X11Y1991D02*
X20Y1991D01*
X11Y1990D02*
X20Y1990D01*
X11Y1989D02*
X20Y1989D01*
X11Y1988D02*
X20Y1988D01*
X11Y1987D02*
X20Y1987D01*
X11Y1986D02*
X20Y1986D01*
X11Y1985D02*
X20Y1985D01*
X11Y1984D02*
X20Y1984D01*
X11Y1983D02*
X20Y1983D01*
X11Y1982D02*
X20Y1982D01*
X11Y1981D02*
X20Y1981D01*
X11Y1980D02*
X20Y1980D01*
X11Y1979D02*
X20Y1979D01*
X11Y1978D02*
X20Y1978D01*
X11Y1977D02*
X20Y1977D01*
X11Y1976D02*
X20Y1976D01*
X11Y1975D02*
X20Y1975D01*
X11Y1974D02*
X20Y1974D01*
X11Y1973D02*
X20Y1973D01*
X11Y1972D02*
X20Y1972D01*
X11Y1971D02*
X20Y1971D01*
X11Y1970D02*
X20Y1970D01*
X11Y1969D02*
X20Y1969D01*
X11Y1968D02*
X20Y1968D01*
X11Y1967D02*
X20Y1967D01*
X11Y1966D02*
X20Y1966D01*
X11Y1965D02*
X20Y1965D01*
X11Y1964D02*
X20Y1964D01*
X11Y1963D02*
X20Y1963D01*
X11Y1962D02*
X20Y1962D01*
X11Y1961D02*
X20Y1961D01*
X11Y1960D02*
X20Y1960D01*
X11Y1959D02*
X20Y1959D01*
X11Y1958D02*
X20Y1958D01*
X11Y1957D02*
X20Y1957D01*
X11Y1956D02*
X20Y1956D01*
X11Y1955D02*
X20Y1955D01*
X11Y1954D02*
X20Y1954D01*
X11Y1953D02*
X20Y1953D01*
X11Y1952D02*
X20Y1952D01*
X11Y1951D02*
X20Y1951D01*
X11Y1950D02*
X20Y1950D01*
X11Y1949D02*
X20Y1949D01*
X11Y1948D02*
X20Y1948D01*
X11Y1947D02*
X20Y1947D01*
X11Y1946D02*
X20Y1946D01*
X11Y1945D02*
X20Y1945D01*
X11Y1944D02*
X20Y1944D01*
X11Y1943D02*
X20Y1943D01*
X11Y1942D02*
X20Y1942D01*
X11Y1941D02*
X20Y1941D01*
X11Y1940D02*
X20Y1940D01*
X11Y1939D02*
X20Y1939D01*
X11Y1938D02*
X20Y1938D01*
X11Y1937D02*
X20Y1937D01*
X11Y1936D02*
X20Y1936D01*
X11Y1935D02*
X20Y1935D01*
X11Y1934D02*
X20Y1934D01*
X11Y1933D02*
X20Y1933D01*
X11Y1932D02*
X20Y1932D01*
X11Y1931D02*
X20Y1931D01*
X11Y1930D02*
X20Y1930D01*
X11Y1929D02*
X20Y1929D01*
X11Y1928D02*
X20Y1928D01*
X11Y1927D02*
X20Y1927D01*
X11Y1926D02*
X20Y1926D01*
X11Y1925D02*
X20Y1925D01*
X11Y1924D02*
X20Y1924D01*
X11Y1923D02*
X20Y1923D01*
X11Y1922D02*
X20Y1922D01*
X11Y1921D02*
X20Y1921D01*
X11Y1920D02*
X20Y1920D01*
X11Y1919D02*
X20Y1919D01*
X11Y1918D02*
X20Y1918D01*
X11Y1917D02*
X20Y1917D01*
X11Y1916D02*
X20Y1916D01*
X11Y1915D02*
X20Y1915D01*
X11Y1914D02*
X20Y1914D01*
X11Y1913D02*
X20Y1913D01*
X11Y1912D02*
X20Y1912D01*
X11Y1911D02*
X20Y1911D01*
X11Y1910D02*
X20Y1910D01*
X11Y1909D02*
X20Y1909D01*
X11Y1908D02*
X20Y1908D01*
X11Y1907D02*
X20Y1907D01*
X11Y1906D02*
X20Y1906D01*
X11Y1905D02*
X20Y1905D01*
X11Y1904D02*
X20Y1904D01*
X11Y1903D02*
X20Y1903D01*
X11Y1902D02*
X20Y1902D01*
X11Y1901D02*
X20Y1901D01*
X11Y1900D02*
X20Y1900D01*
X11Y1899D02*
X20Y1899D01*
X11Y1898D02*
X20Y1898D01*
X11Y1897D02*
X20Y1897D01*
X11Y1896D02*
X20Y1896D01*
X11Y1895D02*
X20Y1895D01*
X11Y1894D02*
X20Y1894D01*
X11Y1893D02*
X20Y1893D01*
X11Y1892D02*
X20Y1892D01*
X11Y1891D02*
X20Y1891D01*
X11Y1890D02*
X20Y1890D01*
X11Y1889D02*
X20Y1889D01*
X11Y1888D02*
X20Y1888D01*
X11Y1887D02*
X20Y1887D01*
X11Y1886D02*
X20Y1886D01*
X11Y1885D02*
X20Y1885D01*
X11Y1884D02*
X20Y1884D01*
X11Y1883D02*
X20Y1883D01*
X11Y1882D02*
X20Y1882D01*
X11Y1881D02*
X20Y1881D01*
X11Y1880D02*
X20Y1880D01*
X11Y1879D02*
X20Y1879D01*
X11Y1878D02*
X20Y1878D01*
X11Y1877D02*
X20Y1877D01*
X11Y1876D02*
X20Y1876D01*
X11Y1875D02*
X20Y1875D01*
X11Y1874D02*
X20Y1874D01*
X11Y1873D02*
X20Y1873D01*
X11Y1872D02*
X20Y1872D01*
X11Y1871D02*
X20Y1871D01*
X11Y1870D02*
X20Y1870D01*
X11Y1869D02*
X20Y1869D01*
X11Y1868D02*
X20Y1868D01*
X11Y1867D02*
X20Y1867D01*
X11Y1866D02*
X20Y1866D01*
X11Y1865D02*
X20Y1865D01*
X11Y1864D02*
X20Y1864D01*
X11Y1863D02*
X20Y1863D01*
X11Y1862D02*
X20Y1862D01*
X11Y1861D02*
X20Y1861D01*
X11Y1860D02*
X20Y1860D01*
X11Y1859D02*
X20Y1859D01*
X11Y1858D02*
X20Y1858D01*
X11Y1857D02*
X20Y1857D01*
X11Y1856D02*
X20Y1856D01*
X11Y1855D02*
X20Y1855D01*
X11Y1854D02*
X20Y1854D01*
X11Y1853D02*
X20Y1853D01*
X11Y1852D02*
X20Y1852D01*
X11Y1851D02*
X20Y1851D01*
X11Y1850D02*
X20Y1850D01*
X11Y1849D02*
X20Y1849D01*
X11Y1848D02*
X20Y1848D01*
X11Y1847D02*
X20Y1847D01*
X11Y1846D02*
X20Y1846D01*
X11Y1845D02*
X20Y1845D01*
X11Y1844D02*
X20Y1844D01*
X11Y1843D02*
X20Y1843D01*
X11Y1842D02*
X20Y1842D01*
X11Y1841D02*
X20Y1841D01*
X11Y1840D02*
X20Y1840D01*
X11Y1839D02*
X20Y1839D01*
X11Y1838D02*
X20Y1838D01*
X11Y1837D02*
X20Y1837D01*
X11Y1836D02*
X20Y1836D01*
X11Y1835D02*
X20Y1835D01*
X11Y1834D02*
X20Y1834D01*
X11Y1833D02*
X20Y1833D01*
X11Y1832D02*
X20Y1832D01*
X11Y1831D02*
X20Y1831D01*
X11Y1830D02*
X20Y1830D01*
X11Y1829D02*
X20Y1829D01*
X11Y1828D02*
X20Y1828D01*
X11Y1827D02*
X20Y1827D01*
X11Y1826D02*
X20Y1826D01*
X11Y1825D02*
X20Y1825D01*
X11Y1824D02*
X20Y1824D01*
X11Y1823D02*
X20Y1823D01*
X11Y1822D02*
X20Y1822D01*
X11Y1821D02*
X20Y1821D01*
X11Y1820D02*
X20Y1820D01*
X11Y1819D02*
X20Y1819D01*
X11Y1818D02*
X20Y1818D01*
X11Y1817D02*
X20Y1817D01*
X11Y1816D02*
X20Y1816D01*
X11Y1815D02*
X20Y1815D01*
X11Y1814D02*
X20Y1814D01*
X11Y1813D02*
X20Y1813D01*
X11Y1812D02*
X20Y1812D01*
X11Y1811D02*
X20Y1811D01*
X11Y1810D02*
X20Y1810D01*
X11Y1809D02*
X20Y1809D01*
X11Y1808D02*
X20Y1808D01*
X11Y1807D02*
X20Y1807D01*
X11Y1806D02*
X20Y1806D01*
X11Y1805D02*
X20Y1805D01*
X11Y1804D02*
X20Y1804D01*
X11Y1803D02*
X20Y1803D01*
X11Y1802D02*
X20Y1802D01*
X11Y1801D02*
X20Y1801D01*
X11Y1800D02*
X20Y1800D01*
X11Y1799D02*
X20Y1799D01*
X11Y1798D02*
X20Y1798D01*
X11Y1797D02*
X20Y1797D01*
X11Y1796D02*
X20Y1796D01*
X11Y1795D02*
X20Y1795D01*
X11Y1794D02*
X20Y1794D01*
X11Y1793D02*
X20Y1793D01*
X11Y1792D02*
X20Y1792D01*
X11Y1791D02*
X20Y1791D01*
X11Y1790D02*
X20Y1790D01*
X11Y1789D02*
X20Y1789D01*
X11Y1788D02*
X20Y1788D01*
X11Y1787D02*
X20Y1787D01*
X11Y1786D02*
X20Y1786D01*
X11Y1785D02*
X20Y1785D01*
X11Y1784D02*
X20Y1784D01*
X11Y1783D02*
X20Y1783D01*
X11Y1782D02*
X20Y1782D01*
X11Y1781D02*
X20Y1781D01*
X11Y1780D02*
X20Y1780D01*
X11Y1779D02*
X20Y1779D01*
X11Y1778D02*
X20Y1778D01*
X11Y1777D02*
X20Y1777D01*
X11Y1776D02*
X20Y1776D01*
X11Y1775D02*
X20Y1775D01*
X11Y1774D02*
X20Y1774D01*
X11Y1773D02*
X20Y1773D01*
X11Y1772D02*
X20Y1772D01*
X11Y1771D02*
X20Y1771D01*
X11Y1770D02*
X20Y1770D01*
X11Y1769D02*
X20Y1769D01*
X11Y1768D02*
X20Y1768D01*
X11Y1767D02*
X20Y1767D01*
X11Y1766D02*
X20Y1766D01*
X11Y1765D02*
X20Y1765D01*
X11Y1764D02*
X20Y1764D01*
X11Y1763D02*
X20Y1763D01*
X11Y1762D02*
X20Y1762D01*
X11Y1761D02*
X20Y1761D01*
X11Y1760D02*
X20Y1760D01*
X11Y1759D02*
X20Y1759D01*
X11Y1758D02*
X20Y1758D01*
X11Y1757D02*
X20Y1757D01*
X11Y1756D02*
X20Y1756D01*
X11Y1755D02*
X20Y1755D01*
X11Y1754D02*
X20Y1754D01*
X11Y1753D02*
X20Y1753D01*
X11Y1752D02*
X20Y1752D01*
X11Y1751D02*
X20Y1751D01*
X11Y1750D02*
X20Y1750D01*
X11Y1749D02*
X20Y1749D01*
X11Y1748D02*
X20Y1748D01*
X11Y1747D02*
X20Y1747D01*
X11Y1746D02*
X20Y1746D01*
X11Y1745D02*
X20Y1745D01*
X11Y1744D02*
X20Y1744D01*
X11Y1743D02*
X20Y1743D01*
X11Y1742D02*
X20Y1742D01*
X11Y1741D02*
X20Y1741D01*
X11Y1740D02*
X20Y1740D01*
X11Y1739D02*
X20Y1739D01*
X11Y1738D02*
X20Y1738D01*
X11Y1737D02*
X20Y1737D01*
X11Y1736D02*
X20Y1736D01*
X11Y1735D02*
X20Y1735D01*
X11Y1734D02*
X20Y1734D01*
X11Y1733D02*
X20Y1733D01*
X11Y1732D02*
X20Y1732D01*
X11Y1731D02*
X20Y1731D01*
X11Y1730D02*
X20Y1730D01*
X11Y1729D02*
X20Y1729D01*
X11Y1728D02*
X20Y1728D01*
X11Y1727D02*
X20Y1727D01*
X11Y1726D02*
X20Y1726D01*
X11Y1725D02*
X20Y1725D01*
X11Y1724D02*
X20Y1724D01*
X11Y1723D02*
X20Y1723D01*
X11Y1722D02*
X20Y1722D01*
X11Y1721D02*
X20Y1721D01*
X11Y1720D02*
X20Y1720D01*
X11Y1719D02*
X20Y1719D01*
X11Y1718D02*
X20Y1718D01*
X11Y1717D02*
X20Y1717D01*
X11Y1716D02*
X20Y1716D01*
X11Y1715D02*
X20Y1715D01*
X11Y1714D02*
X20Y1714D01*
X11Y1713D02*
X20Y1713D01*
X11Y1712D02*
X20Y1712D01*
X11Y1711D02*
X20Y1711D01*
X11Y1710D02*
X20Y1710D01*
X11Y1709D02*
X20Y1709D01*
X11Y1708D02*
X20Y1708D01*
X11Y1707D02*
X20Y1707D01*
X11Y1706D02*
X20Y1706D01*
X11Y1705D02*
X20Y1705D01*
X11Y1704D02*
X20Y1704D01*
X11Y1703D02*
X20Y1703D01*
X11Y1702D02*
X20Y1702D01*
X11Y1701D02*
X20Y1701D01*
X11Y1700D02*
X20Y1700D01*
X11Y1699D02*
X20Y1699D01*
X11Y1698D02*
X20Y1698D01*
X11Y1697D02*
X20Y1697D01*
X11Y1696D02*
X20Y1696D01*
X11Y1695D02*
X20Y1695D01*
X11Y1694D02*
X20Y1694D01*
X11Y1693D02*
X20Y1693D01*
X11Y1692D02*
X20Y1692D01*
X11Y1691D02*
X20Y1691D01*
X11Y1690D02*
X20Y1690D01*
X11Y1689D02*
X20Y1689D01*
X11Y1688D02*
X20Y1688D01*
X11Y1687D02*
X20Y1687D01*
X11Y1686D02*
X20Y1686D01*
X11Y1685D02*
X20Y1685D01*
X11Y1684D02*
X20Y1684D01*
X11Y1683D02*
X20Y1683D01*
X11Y1682D02*
X20Y1682D01*
X11Y1681D02*
X20Y1681D01*
X11Y1680D02*
X20Y1680D01*
X11Y1679D02*
X20Y1679D01*
X11Y1678D02*
X20Y1678D01*
X11Y1677D02*
X20Y1677D01*
X11Y1676D02*
X20Y1676D01*
X11Y1675D02*
X20Y1675D01*
X11Y1674D02*
X20Y1674D01*
X11Y1673D02*
X20Y1673D01*
X11Y1672D02*
X20Y1672D01*
X11Y1671D02*
X20Y1671D01*
X11Y1670D02*
X20Y1670D01*
X11Y1669D02*
X20Y1669D01*
X11Y1668D02*
X20Y1668D01*
X11Y1667D02*
X20Y1667D01*
X11Y1666D02*
X20Y1666D01*
X11Y1665D02*
X20Y1665D01*
X11Y1664D02*
X20Y1664D01*
X11Y1663D02*
X20Y1663D01*
X11Y1662D02*
X20Y1662D01*
X11Y1661D02*
X20Y1661D01*
X11Y1660D02*
X20Y1660D01*
X11Y1659D02*
X20Y1659D01*
X11Y1658D02*
X20Y1658D01*
X11Y1657D02*
X20Y1657D01*
X11Y1656D02*
X20Y1656D01*
X11Y1655D02*
X20Y1655D01*
X11Y1654D02*
X20Y1654D01*
X11Y1653D02*
X20Y1653D01*
X11Y1652D02*
X20Y1652D01*
X11Y1651D02*
X20Y1651D01*
X11Y1650D02*
X20Y1650D01*
X11Y1649D02*
X20Y1649D01*
X11Y1648D02*
X20Y1648D01*
X11Y1647D02*
X20Y1647D01*
X11Y1646D02*
X20Y1646D01*
X11Y1645D02*
X20Y1645D01*
X11Y1644D02*
X20Y1644D01*
X11Y1643D02*
X20Y1643D01*
X11Y1642D02*
X20Y1642D01*
X11Y1641D02*
X20Y1641D01*
X11Y1640D02*
X20Y1640D01*
X11Y1639D02*
X20Y1639D01*
X11Y1638D02*
X20Y1638D01*
X11Y1637D02*
X20Y1637D01*
X11Y1636D02*
X20Y1636D01*
X11Y1635D02*
X20Y1635D01*
X11Y1634D02*
X20Y1634D01*
X11Y1633D02*
X20Y1633D01*
X11Y1632D02*
X20Y1632D01*
X11Y1631D02*
X20Y1631D01*
X11Y1630D02*
X20Y1630D01*
X11Y1629D02*
X20Y1629D01*
X11Y1628D02*
X20Y1628D01*
X11Y1627D02*
X20Y1627D01*
X11Y1626D02*
X20Y1626D01*
X11Y1625D02*
X20Y1625D01*
X11Y1624D02*
X20Y1624D01*
X11Y1623D02*
X20Y1623D01*
X11Y1622D02*
X20Y1622D01*
X11Y1621D02*
X20Y1621D01*
X11Y1620D02*
X20Y1620D01*
X11Y1619D02*
X20Y1619D01*
X11Y1618D02*
X20Y1618D01*
X11Y1617D02*
X20Y1617D01*
X11Y1616D02*
X20Y1616D01*
X11Y1615D02*
X20Y1615D01*
X11Y1614D02*
X20Y1614D01*
X11Y1613D02*
X20Y1613D01*
X11Y1612D02*
X20Y1612D01*
X11Y1611D02*
X20Y1611D01*
X11Y1610D02*
X20Y1610D01*
X11Y1609D02*
X20Y1609D01*
X11Y1608D02*
X20Y1608D01*
X11Y1607D02*
X20Y1607D01*
X11Y1606D02*
X20Y1606D01*
X11Y1605D02*
X20Y1605D01*
X11Y1604D02*
X20Y1604D01*
X11Y1603D02*
X20Y1603D01*
X11Y1602D02*
X20Y1602D01*
X11Y1601D02*
X20Y1601D01*
X11Y1600D02*
X20Y1600D01*
X11Y1599D02*
X20Y1599D01*
X11Y1598D02*
X20Y1598D01*
X11Y1597D02*
X20Y1597D01*
X11Y1596D02*
X20Y1596D01*
X11Y1595D02*
X20Y1595D01*
X11Y1594D02*
X20Y1594D01*
X11Y1593D02*
X20Y1593D01*
X11Y1592D02*
X20Y1592D01*
X11Y1591D02*
X20Y1591D01*
X11Y1590D02*
X20Y1590D01*
X11Y1589D02*
X20Y1589D01*
X11Y1588D02*
X20Y1588D01*
X11Y1587D02*
X20Y1587D01*
X11Y1586D02*
X20Y1586D01*
X11Y1585D02*
X20Y1585D01*
X11Y1584D02*
X20Y1584D01*
X11Y1583D02*
X20Y1583D01*
X11Y1582D02*
X20Y1582D01*
X11Y1581D02*
X20Y1581D01*
X11Y1580D02*
X20Y1580D01*
X11Y1579D02*
X20Y1579D01*
X11Y1578D02*
X20Y1578D01*
X11Y1577D02*
X20Y1577D01*
X11Y1576D02*
X20Y1576D01*
X11Y1575D02*
X20Y1575D01*
X11Y1574D02*
X20Y1574D01*
X11Y1573D02*
X20Y1573D01*
X11Y1572D02*
X20Y1572D01*
X11Y1571D02*
X20Y1571D01*
X11Y1570D02*
X20Y1570D01*
X11Y1569D02*
X20Y1569D01*
X11Y1568D02*
X20Y1568D01*
X11Y1567D02*
X20Y1567D01*
X11Y1566D02*
X20Y1566D01*
X11Y1565D02*
X20Y1565D01*
X11Y1564D02*
X20Y1564D01*
X11Y1563D02*
X20Y1563D01*
X11Y1562D02*
X20Y1562D01*
X11Y1561D02*
X20Y1561D01*
X11Y1560D02*
X20Y1560D01*
X11Y1559D02*
X20Y1559D01*
X11Y1558D02*
X20Y1558D01*
X11Y1557D02*
X20Y1557D01*
X11Y1556D02*
X20Y1556D01*
X11Y1555D02*
X20Y1555D01*
X11Y1554D02*
X20Y1554D01*
X11Y1553D02*
X20Y1553D01*
X11Y1552D02*
X20Y1552D01*
X11Y1551D02*
X20Y1551D01*
X11Y1550D02*
X20Y1550D01*
X11Y1549D02*
X20Y1549D01*
X11Y1548D02*
X20Y1548D01*
X11Y1547D02*
X20Y1547D01*
X11Y1546D02*
X20Y1546D01*
X11Y1545D02*
X20Y1545D01*
X11Y1544D02*
X20Y1544D01*
X11Y1543D02*
X20Y1543D01*
X11Y1542D02*
X20Y1542D01*
X11Y1541D02*
X20Y1541D01*
X11Y1540D02*
X20Y1540D01*
X11Y1539D02*
X20Y1539D01*
X11Y1538D02*
X20Y1538D01*
X11Y1537D02*
X20Y1537D01*
X11Y1536D02*
X20Y1536D01*
X11Y1535D02*
X20Y1535D01*
X11Y1534D02*
X20Y1534D01*
X11Y1533D02*
X20Y1533D01*
X11Y1532D02*
X20Y1532D01*
X11Y1531D02*
X20Y1531D01*
X11Y1530D02*
X20Y1530D01*
X11Y1529D02*
X20Y1529D01*
X11Y1528D02*
X20Y1528D01*
X11Y1527D02*
X20Y1527D01*
X11Y1526D02*
X20Y1526D01*
X11Y1525D02*
X20Y1525D01*
X11Y1524D02*
X20Y1524D01*
X11Y1523D02*
X20Y1523D01*
X11Y1522D02*
X20Y1522D01*
X11Y1521D02*
X20Y1521D01*
X11Y1520D02*
X20Y1520D01*
X11Y1519D02*
X20Y1519D01*
X11Y1518D02*
X20Y1518D01*
X11Y1517D02*
X20Y1517D01*
X11Y1516D02*
X20Y1516D01*
X11Y1515D02*
X20Y1515D01*
X11Y1514D02*
X20Y1514D01*
X11Y1513D02*
X20Y1513D01*
X11Y1512D02*
X20Y1512D01*
X11Y1511D02*
X20Y1511D01*
X11Y1510D02*
X20Y1510D01*
X11Y1509D02*
X20Y1509D01*
X11Y1508D02*
X20Y1508D01*
X11Y1507D02*
X20Y1507D01*
X11Y1506D02*
X20Y1506D01*
X11Y1505D02*
X20Y1505D01*
X11Y1504D02*
X20Y1504D01*
X11Y1503D02*
X20Y1503D01*
X11Y1502D02*
X20Y1502D01*
X11Y1501D02*
X20Y1501D01*
X11Y1500D02*
X20Y1500D01*
X11Y1499D02*
X20Y1499D01*
X11Y1498D02*
X20Y1498D01*
X11Y1497D02*
X20Y1497D01*
X11Y1496D02*
X20Y1496D01*
X11Y1495D02*
X20Y1495D01*
X11Y1494D02*
X20Y1494D01*
X11Y1493D02*
X20Y1493D01*
X11Y1492D02*
X20Y1492D01*
X11Y1491D02*
X20Y1491D01*
X11Y1490D02*
X20Y1490D01*
X11Y1489D02*
X20Y1489D01*
X11Y1488D02*
X20Y1488D01*
X11Y1487D02*
X20Y1487D01*
X11Y1486D02*
X20Y1486D01*
X11Y1485D02*
X20Y1485D01*
X11Y1484D02*
X20Y1484D01*
X11Y1483D02*
X20Y1483D01*
X11Y1482D02*
X20Y1482D01*
X11Y1481D02*
X20Y1481D01*
X11Y1480D02*
X20Y1480D01*
X11Y1479D02*
X20Y1479D01*
X11Y1478D02*
X20Y1478D01*
X11Y1477D02*
X20Y1477D01*
X11Y1476D02*
X20Y1476D01*
X11Y1475D02*
X20Y1475D01*
X11Y1474D02*
X20Y1474D01*
X11Y1473D02*
X20Y1473D01*
X11Y1472D02*
X20Y1472D01*
X11Y1471D02*
X20Y1471D01*
X11Y1470D02*
X20Y1470D01*
X11Y1469D02*
X20Y1469D01*
X11Y1468D02*
X20Y1468D01*
X11Y1467D02*
X20Y1467D01*
X11Y1466D02*
X20Y1466D01*
X11Y1465D02*
X20Y1465D01*
X11Y1464D02*
X20Y1464D01*
X11Y1463D02*
X20Y1463D01*
X11Y1462D02*
X20Y1462D01*
X11Y1461D02*
X20Y1461D01*
X11Y1460D02*
X20Y1460D01*
X11Y1459D02*
X20Y1459D01*
X11Y1458D02*
X20Y1458D01*
X11Y1457D02*
X20Y1457D01*
X11Y1456D02*
X20Y1456D01*
X11Y1455D02*
X20Y1455D01*
X11Y1454D02*
X20Y1454D01*
X11Y1453D02*
X20Y1453D01*
X11Y1452D02*
X20Y1452D01*
X11Y1451D02*
X20Y1451D01*
X11Y1450D02*
X20Y1450D01*
X11Y1449D02*
X20Y1449D01*
X11Y1448D02*
X20Y1448D01*
X11Y1447D02*
X20Y1447D01*
X11Y1446D02*
X20Y1446D01*
X11Y1445D02*
X20Y1445D01*
X11Y1444D02*
X20Y1444D01*
X11Y1443D02*
X20Y1443D01*
X11Y1442D02*
X20Y1442D01*
X11Y1441D02*
X20Y1441D01*
X11Y1440D02*
X20Y1440D01*
X11Y1439D02*
X20Y1439D01*
X11Y1438D02*
X20Y1438D01*
X11Y1437D02*
X20Y1437D01*
X11Y1436D02*
X20Y1436D01*
X11Y1435D02*
X20Y1435D01*
X11Y1434D02*
X20Y1434D01*
X11Y1433D02*
X20Y1433D01*
X11Y1432D02*
X20Y1432D01*
X11Y1431D02*
X20Y1431D01*
X11Y1430D02*
X20Y1430D01*
X11Y1429D02*
X20Y1429D01*
X11Y1428D02*
X20Y1428D01*
X11Y1427D02*
X20Y1427D01*
X11Y1426D02*
X20Y1426D01*
X11Y1425D02*
X20Y1425D01*
X11Y1424D02*
X20Y1424D01*
X11Y1423D02*
X20Y1423D01*
X11Y1422D02*
X20Y1422D01*
X11Y1421D02*
X20Y1421D01*
X11Y1420D02*
X20Y1420D01*
X11Y1419D02*
X20Y1419D01*
X11Y1418D02*
X20Y1418D01*
X11Y1417D02*
X20Y1417D01*
X11Y1416D02*
X20Y1416D01*
X11Y1415D02*
X20Y1415D01*
X11Y1414D02*
X20Y1414D01*
X11Y1413D02*
X20Y1413D01*
X11Y1412D02*
X20Y1412D01*
X11Y1411D02*
X20Y1411D01*
X11Y1410D02*
X20Y1410D01*
X11Y1409D02*
X20Y1409D01*
X11Y1408D02*
X20Y1408D01*
X11Y1407D02*
X20Y1407D01*
X11Y1406D02*
X20Y1406D01*
X11Y1405D02*
X20Y1405D01*
X11Y1404D02*
X20Y1404D01*
X11Y1403D02*
X20Y1403D01*
X11Y1402D02*
X20Y1402D01*
X11Y1401D02*
X20Y1401D01*
X11Y1400D02*
X20Y1400D01*
X11Y1399D02*
X20Y1399D01*
X11Y1398D02*
X20Y1398D01*
X11Y1397D02*
X20Y1397D01*
X11Y1396D02*
X20Y1396D01*
X11Y1395D02*
X20Y1395D01*
X11Y1394D02*
X20Y1394D01*
X11Y1393D02*
X20Y1393D01*
X11Y1392D02*
X20Y1392D01*
X11Y1391D02*
X20Y1391D01*
X11Y1390D02*
X20Y1390D01*
X11Y1389D02*
X20Y1389D01*
X11Y1388D02*
X20Y1388D01*
X11Y1387D02*
X20Y1387D01*
X11Y1386D02*
X20Y1386D01*
X11Y1385D02*
X20Y1385D01*
X11Y1384D02*
X20Y1384D01*
X11Y1383D02*
X20Y1383D01*
X11Y1382D02*
X20Y1382D01*
X11Y1381D02*
X20Y1381D01*
X11Y1380D02*
X20Y1380D01*
X11Y1379D02*
X20Y1379D01*
X11Y1378D02*
X20Y1378D01*
X11Y1377D02*
X20Y1377D01*
X11Y1376D02*
X20Y1376D01*
X11Y1375D02*
X20Y1375D01*
X11Y1374D02*
X20Y1374D01*
X11Y1373D02*
X20Y1373D01*
X11Y1372D02*
X20Y1372D01*
X11Y1371D02*
X20Y1371D01*
X11Y1370D02*
X20Y1370D01*
X11Y1369D02*
X20Y1369D01*
X11Y1368D02*
X20Y1368D01*
X11Y1367D02*
X20Y1367D01*
X11Y1366D02*
X20Y1366D01*
X11Y1365D02*
X20Y1365D01*
X11Y1364D02*
X20Y1364D01*
X11Y1363D02*
X20Y1363D01*
X11Y1362D02*
X20Y1362D01*
X11Y1361D02*
X20Y1361D01*
X11Y1360D02*
X20Y1360D01*
X11Y1359D02*
X20Y1359D01*
X11Y1358D02*
X20Y1358D01*
X11Y1357D02*
X20Y1357D01*
X11Y1356D02*
X20Y1356D01*
X11Y1355D02*
X20Y1355D01*
X11Y1354D02*
X20Y1354D01*
X11Y1353D02*
X20Y1353D01*
X11Y1352D02*
X20Y1352D01*
X11Y1351D02*
X20Y1351D01*
X11Y1350D02*
X20Y1350D01*
X11Y1349D02*
X20Y1349D01*
X11Y1348D02*
X20Y1348D01*
X11Y1347D02*
X20Y1347D01*
X11Y1346D02*
X20Y1346D01*
X11Y1345D02*
X20Y1345D01*
X11Y1344D02*
X20Y1344D01*
X11Y1343D02*
X20Y1343D01*
X11Y1342D02*
X20Y1342D01*
X11Y1341D02*
X20Y1341D01*
X11Y1340D02*
X20Y1340D01*
X11Y1339D02*
X20Y1339D01*
X11Y1338D02*
X20Y1338D01*
X11Y1337D02*
X20Y1337D01*
X11Y1336D02*
X20Y1336D01*
X11Y1335D02*
X20Y1335D01*
X11Y1334D02*
X20Y1334D01*
X1477Y1334D02*
X1797Y1334D01*
X11Y1333D02*
X20Y1333D01*
X1470Y1333D02*
X1804Y1333D01*
X11Y1332D02*
X20Y1332D01*
X1465Y1332D02*
X1809Y1332D01*
X11Y1331D02*
X20Y1331D01*
X1461Y1331D02*
X1813Y1331D01*
X11Y1330D02*
X20Y1330D01*
X1458Y1330D02*
X1816Y1330D01*
X11Y1329D02*
X20Y1329D01*
X1455Y1329D02*
X1819Y1329D01*
X11Y1328D02*
X20Y1328D01*
X1452Y1328D02*
X1822Y1328D01*
X11Y1327D02*
X20Y1327D01*
X1449Y1327D02*
X1825Y1327D01*
X11Y1326D02*
X20Y1326D01*
X1447Y1326D02*
X1476Y1326D01*
X1798Y1326D02*
X1827Y1326D01*
X11Y1325D02*
X20Y1325D01*
X1445Y1325D02*
X1469Y1325D01*
X1805Y1325D02*
X1829Y1325D01*
X11Y1324D02*
X20Y1324D01*
X1443Y1324D02*
X1464Y1324D01*
X1810Y1324D02*
X1831Y1324D01*
X11Y1323D02*
X20Y1323D01*
X1441Y1323D02*
X1461Y1323D01*
X1813Y1323D02*
X1833Y1323D01*
X11Y1322D02*
X20Y1322D01*
X1439Y1322D02*
X1458Y1322D01*
X1816Y1322D02*
X1835Y1322D01*
X11Y1321D02*
X20Y1321D01*
X1437Y1321D02*
X1455Y1321D01*
X1819Y1321D02*
X1837Y1321D01*
X11Y1320D02*
X20Y1320D01*
X1436Y1320D02*
X1452Y1320D01*
X1822Y1320D02*
X1838Y1320D01*
X11Y1319D02*
X20Y1319D01*
X1434Y1319D02*
X1450Y1319D01*
X1824Y1319D02*
X1840Y1319D01*
X11Y1318D02*
X20Y1318D01*
X1432Y1318D02*
X1448Y1318D01*
X1826Y1318D02*
X1842Y1318D01*
X11Y1317D02*
X20Y1317D01*
X1431Y1317D02*
X1446Y1317D01*
X1829Y1317D02*
X1843Y1317D01*
X11Y1316D02*
X20Y1316D01*
X1430Y1316D02*
X1443Y1316D01*
X1831Y1316D02*
X1844Y1316D01*
X11Y1315D02*
X20Y1315D01*
X1428Y1315D02*
X1442Y1315D01*
X1832Y1315D02*
X1846Y1315D01*
X11Y1314D02*
X20Y1314D01*
X1427Y1314D02*
X1440Y1314D01*
X1834Y1314D02*
X1847Y1314D01*
X11Y1313D02*
X20Y1313D01*
X1426Y1313D02*
X1438Y1313D01*
X1836Y1313D02*
X1849Y1313D01*
X11Y1312D02*
X20Y1312D01*
X1424Y1312D02*
X1437Y1312D01*
X1837Y1312D02*
X1850Y1312D01*
X11Y1311D02*
X20Y1311D01*
X1423Y1311D02*
X1435Y1311D01*
X1839Y1311D02*
X1851Y1311D01*
X11Y1310D02*
X20Y1310D01*
X1422Y1310D02*
X1434Y1310D01*
X1840Y1310D02*
X1852Y1310D01*
X11Y1309D02*
X20Y1309D01*
X1421Y1309D02*
X1432Y1309D01*
X1842Y1309D02*
X1853Y1309D01*
X11Y1308D02*
X20Y1308D01*
X1420Y1308D02*
X1431Y1308D01*
X1843Y1308D02*
X1854Y1308D01*
X11Y1307D02*
X20Y1307D01*
X1419Y1307D02*
X1430Y1307D01*
X1844Y1307D02*
X1856Y1307D01*
X11Y1306D02*
X20Y1306D01*
X1417Y1306D02*
X1428Y1306D01*
X1846Y1306D02*
X1857Y1306D01*
X11Y1305D02*
X20Y1305D01*
X1416Y1305D02*
X1427Y1305D01*
X1847Y1305D02*
X1858Y1305D01*
X11Y1304D02*
X20Y1304D01*
X1415Y1304D02*
X1426Y1304D01*
X1848Y1304D02*
X1859Y1304D01*
X11Y1303D02*
X20Y1303D01*
X1415Y1303D02*
X1425Y1303D01*
X1849Y1303D02*
X1859Y1303D01*
X11Y1302D02*
X20Y1302D01*
X1414Y1302D02*
X1424Y1302D01*
X1850Y1302D02*
X1860Y1302D01*
X11Y1301D02*
X20Y1301D01*
X1413Y1301D02*
X1423Y1301D01*
X1851Y1301D02*
X1861Y1301D01*
X11Y1300D02*
X20Y1300D01*
X1412Y1300D02*
X1422Y1300D01*
X1852Y1300D02*
X1862Y1300D01*
X11Y1299D02*
X20Y1299D01*
X1411Y1299D02*
X1421Y1299D01*
X1853Y1299D02*
X1863Y1299D01*
X11Y1298D02*
X20Y1298D01*
X1410Y1298D02*
X1420Y1298D01*
X1854Y1298D02*
X1864Y1298D01*
X11Y1297D02*
X20Y1297D01*
X1409Y1297D02*
X1419Y1297D01*
X1855Y1297D02*
X1865Y1297D01*
X11Y1296D02*
X20Y1296D01*
X1409Y1296D02*
X1418Y1296D01*
X1856Y1296D02*
X1865Y1296D01*
X11Y1295D02*
X20Y1295D01*
X1408Y1295D02*
X1417Y1295D01*
X1857Y1295D02*
X1866Y1295D01*
X11Y1294D02*
X20Y1294D01*
X1407Y1294D02*
X1416Y1294D01*
X1858Y1294D02*
X1867Y1294D01*
X11Y1293D02*
X20Y1293D01*
X1406Y1293D02*
X1415Y1293D01*
X1859Y1293D02*
X1868Y1293D01*
X11Y1292D02*
X20Y1292D01*
X1406Y1292D02*
X1415Y1292D01*
X1859Y1292D02*
X1868Y1292D01*
X11Y1291D02*
X20Y1291D01*
X1405Y1291D02*
X1414Y1291D01*
X1860Y1291D02*
X1869Y1291D01*
X11Y1290D02*
X20Y1290D01*
X1404Y1290D02*
X1413Y1290D01*
X1861Y1290D02*
X1870Y1290D01*
X11Y1289D02*
X20Y1289D01*
X1404Y1289D02*
X1412Y1289D01*
X1862Y1289D02*
X1870Y1289D01*
X11Y1288D02*
X20Y1288D01*
X1403Y1288D02*
X1412Y1288D01*
X1862Y1288D02*
X1871Y1288D01*
X11Y1287D02*
X20Y1287D01*
X1402Y1287D02*
X1411Y1287D01*
X1863Y1287D02*
X1872Y1287D01*
X11Y1286D02*
X20Y1286D01*
X1402Y1286D02*
X1410Y1286D01*
X1864Y1286D02*
X1872Y1286D01*
X11Y1285D02*
X20Y1285D01*
X1401Y1285D02*
X1409Y1285D01*
X1865Y1285D02*
X1873Y1285D01*
X11Y1284D02*
X20Y1284D01*
X1401Y1284D02*
X1409Y1284D01*
X1865Y1284D02*
X1873Y1284D01*
X11Y1283D02*
X20Y1283D01*
X1400Y1283D02*
X1408Y1283D01*
X1866Y1283D02*
X1874Y1283D01*
X11Y1282D02*
X20Y1282D01*
X1400Y1282D02*
X1408Y1282D01*
X1866Y1282D02*
X1874Y1282D01*
X11Y1281D02*
X20Y1281D01*
X1399Y1281D02*
X1407Y1281D01*
X1867Y1281D02*
X1875Y1281D01*
X11Y1280D02*
X20Y1280D01*
X1398Y1280D02*
X1406Y1280D01*
X1868Y1280D02*
X1876Y1280D01*
X11Y1279D02*
X20Y1279D01*
X1398Y1279D02*
X1406Y1279D01*
X1868Y1279D02*
X1876Y1279D01*
X11Y1278D02*
X20Y1278D01*
X1397Y1278D02*
X1405Y1278D01*
X1869Y1278D02*
X1877Y1278D01*
X11Y1277D02*
X20Y1277D01*
X1397Y1277D02*
X1405Y1277D01*
X1869Y1277D02*
X1877Y1277D01*
X11Y1276D02*
X20Y1276D01*
X1397Y1276D02*
X1404Y1276D01*
X1870Y1276D02*
X1878Y1276D01*
X11Y1275D02*
X20Y1275D01*
X1396Y1275D02*
X1404Y1275D01*
X1870Y1275D02*
X1878Y1275D01*
X11Y1274D02*
X20Y1274D01*
X1396Y1274D02*
X1403Y1274D01*
X1871Y1274D02*
X1878Y1274D01*
X11Y1273D02*
X20Y1273D01*
X1395Y1273D02*
X1403Y1273D01*
X1871Y1273D02*
X1879Y1273D01*
X11Y1272D02*
X20Y1272D01*
X1395Y1272D02*
X1402Y1272D01*
X1872Y1272D02*
X1879Y1272D01*
X11Y1271D02*
X20Y1271D01*
X1394Y1271D02*
X1402Y1271D01*
X1872Y1271D02*
X1880Y1271D01*
X11Y1270D02*
X20Y1270D01*
X1394Y1270D02*
X1402Y1270D01*
X1872Y1270D02*
X1880Y1270D01*
X11Y1269D02*
X20Y1269D01*
X1394Y1269D02*
X1401Y1269D01*
X1873Y1269D02*
X1880Y1269D01*
X11Y1268D02*
X20Y1268D01*
X1393Y1268D02*
X1401Y1268D01*
X1873Y1268D02*
X1881Y1268D01*
X11Y1267D02*
X20Y1267D01*
X1393Y1267D02*
X1400Y1267D01*
X1874Y1267D02*
X1881Y1267D01*
X11Y1266D02*
X20Y1266D01*
X1393Y1266D02*
X1400Y1266D01*
X1874Y1266D02*
X1881Y1266D01*
X11Y1265D02*
X20Y1265D01*
X1392Y1265D02*
X1400Y1265D01*
X1874Y1265D02*
X1882Y1265D01*
X11Y1264D02*
X20Y1264D01*
X1392Y1264D02*
X1399Y1264D01*
X1875Y1264D02*
X1882Y1264D01*
X11Y1263D02*
X20Y1263D01*
X1392Y1263D02*
X1399Y1263D01*
X1875Y1263D02*
X1882Y1263D01*
X11Y1262D02*
X20Y1262D01*
X1391Y1262D02*
X1399Y1262D01*
X1875Y1262D02*
X1883Y1262D01*
X11Y1261D02*
X20Y1261D01*
X1391Y1261D02*
X1398Y1261D01*
X1876Y1261D02*
X1883Y1261D01*
X11Y1260D02*
X20Y1260D01*
X1391Y1260D02*
X1398Y1260D01*
X1876Y1260D02*
X1883Y1260D01*
X11Y1259D02*
X20Y1259D01*
X1391Y1259D02*
X1398Y1259D01*
X1876Y1259D02*
X1883Y1259D01*
X11Y1258D02*
X20Y1258D01*
X1390Y1258D02*
X1397Y1258D01*
X1877Y1258D02*
X1884Y1258D01*
X11Y1257D02*
X20Y1257D01*
X1390Y1257D02*
X1397Y1257D01*
X1877Y1257D02*
X1884Y1257D01*
X11Y1256D02*
X20Y1256D01*
X1390Y1256D02*
X1397Y1256D01*
X1877Y1256D02*
X1884Y1256D01*
X11Y1255D02*
X20Y1255D01*
X1390Y1255D02*
X1397Y1255D01*
X1877Y1255D02*
X1884Y1255D01*
X11Y1254D02*
X20Y1254D01*
X1389Y1254D02*
X1397Y1254D01*
X1878Y1254D02*
X1885Y1254D01*
X11Y1253D02*
X20Y1253D01*
X1389Y1253D02*
X1396Y1253D01*
X1878Y1253D02*
X1885Y1253D01*
X11Y1252D02*
X20Y1252D01*
X1389Y1252D02*
X1396Y1252D01*
X1878Y1252D02*
X1885Y1252D01*
X11Y1251D02*
X20Y1251D01*
X1389Y1251D02*
X1396Y1251D01*
X1878Y1251D02*
X1885Y1251D01*
X11Y1250D02*
X20Y1250D01*
X1389Y1250D02*
X1396Y1250D01*
X1878Y1250D02*
X1885Y1250D01*
X11Y1249D02*
X20Y1249D01*
X1389Y1249D02*
X1396Y1249D01*
X1878Y1249D02*
X1885Y1249D01*
X11Y1248D02*
X20Y1248D01*
X1388Y1248D02*
X1395Y1248D01*
X1879Y1248D02*
X1886Y1248D01*
X11Y1247D02*
X20Y1247D01*
X1388Y1247D02*
X1395Y1247D01*
X1879Y1247D02*
X1886Y1247D01*
X11Y1246D02*
X20Y1246D01*
X1388Y1246D02*
X1395Y1246D01*
X1879Y1246D02*
X1886Y1246D01*
X11Y1245D02*
X20Y1245D01*
X1388Y1245D02*
X1395Y1245D01*
X1879Y1245D02*
X1886Y1245D01*
X11Y1244D02*
X20Y1244D01*
X1388Y1244D02*
X1395Y1244D01*
X1879Y1244D02*
X1886Y1244D01*
X11Y1243D02*
X20Y1243D01*
X1388Y1243D02*
X1395Y1243D01*
X1879Y1243D02*
X1886Y1243D01*
X11Y1242D02*
X20Y1242D01*
X1388Y1242D02*
X1395Y1242D01*
X1879Y1242D02*
X1886Y1242D01*
X11Y1241D02*
X20Y1241D01*
X1388Y1241D02*
X1395Y1241D01*
X1879Y1241D02*
X1886Y1241D01*
X11Y1240D02*
X20Y1240D01*
X1388Y1240D02*
X1395Y1240D01*
X1879Y1240D02*
X1886Y1240D01*
X11Y1239D02*
X20Y1239D01*
X1388Y1239D02*
X1395Y1239D01*
X1879Y1239D02*
X1886Y1239D01*
X11Y1238D02*
X20Y1238D01*
X1388Y1238D02*
X1395Y1238D01*
X1879Y1238D02*
X1886Y1238D01*
X11Y1237D02*
X20Y1237D01*
X1388Y1237D02*
X1395Y1237D01*
X1880Y1237D02*
X1887Y1237D01*
X11Y1236D02*
X20Y1236D01*
X1388Y1236D02*
X1395Y1236D01*
X1880Y1236D02*
X1887Y1236D01*
X11Y1235D02*
X20Y1235D01*
X1388Y1235D02*
X1395Y1235D01*
X1880Y1235D02*
X1887Y1235D01*
X11Y1234D02*
X20Y1234D01*
X1388Y1234D02*
X1395Y1234D01*
X1880Y1234D02*
X1887Y1234D01*
X11Y1233D02*
X20Y1233D01*
X1388Y1233D02*
X1395Y1233D01*
X1880Y1233D02*
X1887Y1233D01*
X11Y1232D02*
X20Y1232D01*
X1387Y1232D02*
X1395Y1232D01*
X1880Y1232D02*
X1887Y1232D01*
X11Y1231D02*
X20Y1231D01*
X1388Y1231D02*
X1395Y1231D01*
X1879Y1231D02*
X1887Y1231D01*
X11Y1230D02*
X20Y1230D01*
X1388Y1230D02*
X1395Y1230D01*
X1879Y1230D02*
X1887Y1230D01*
X11Y1229D02*
X20Y1229D01*
X1388Y1229D02*
X1395Y1229D01*
X1879Y1229D02*
X1887Y1229D01*
X11Y1228D02*
X20Y1228D01*
X1388Y1228D02*
X1395Y1228D01*
X1879Y1228D02*
X1887Y1228D01*
X11Y1227D02*
X20Y1227D01*
X1388Y1227D02*
X1395Y1227D01*
X1879Y1227D02*
X1887Y1227D01*
X11Y1226D02*
X20Y1226D01*
X1388Y1226D02*
X1395Y1226D01*
X1879Y1226D02*
X1887Y1226D01*
X11Y1225D02*
X20Y1225D01*
X1388Y1225D02*
X1395Y1225D01*
X1879Y1225D02*
X1887Y1225D01*
X11Y1224D02*
X20Y1224D01*
X1388Y1224D02*
X1395Y1224D01*
X1879Y1224D02*
X1887Y1224D01*
X11Y1223D02*
X20Y1223D01*
X1388Y1223D02*
X1395Y1223D01*
X1879Y1223D02*
X1887Y1223D01*
X11Y1222D02*
X20Y1222D01*
X1388Y1222D02*
X1395Y1222D01*
X1879Y1222D02*
X1887Y1222D01*
X11Y1221D02*
X20Y1221D01*
X1388Y1221D02*
X1395Y1221D01*
X1879Y1221D02*
X1887Y1221D01*
X11Y1220D02*
X20Y1220D01*
X1388Y1220D02*
X1395Y1220D01*
X1879Y1220D02*
X1887Y1220D01*
X11Y1219D02*
X20Y1219D01*
X1388Y1219D02*
X1395Y1219D01*
X1879Y1219D02*
X1887Y1219D01*
X11Y1218D02*
X20Y1218D01*
X1388Y1218D02*
X1395Y1218D01*
X1879Y1218D02*
X1887Y1218D01*
X11Y1217D02*
X20Y1217D01*
X1388Y1217D02*
X1395Y1217D01*
X1879Y1217D02*
X1887Y1217D01*
X11Y1216D02*
X20Y1216D01*
X1388Y1216D02*
X1395Y1216D01*
X1879Y1216D02*
X1887Y1216D01*
X11Y1215D02*
X20Y1215D01*
X1388Y1215D02*
X1395Y1215D01*
X1879Y1215D02*
X1887Y1215D01*
X11Y1214D02*
X20Y1214D01*
X1388Y1214D02*
X1395Y1214D01*
X1879Y1214D02*
X1887Y1214D01*
X11Y1213D02*
X20Y1213D01*
X1388Y1213D02*
X1395Y1213D01*
X1879Y1213D02*
X1887Y1213D01*
X11Y1212D02*
X20Y1212D01*
X1388Y1212D02*
X1395Y1212D01*
X1879Y1212D02*
X1887Y1212D01*
X11Y1211D02*
X20Y1211D01*
X1388Y1211D02*
X1395Y1211D01*
X1879Y1211D02*
X1887Y1211D01*
X11Y1210D02*
X20Y1210D01*
X1388Y1210D02*
X1395Y1210D01*
X1879Y1210D02*
X1887Y1210D01*
X11Y1209D02*
X20Y1209D01*
X1388Y1209D02*
X1395Y1209D01*
X1879Y1209D02*
X1887Y1209D01*
X11Y1208D02*
X20Y1208D01*
X1388Y1208D02*
X1395Y1208D01*
X1879Y1208D02*
X1887Y1208D01*
X11Y1207D02*
X20Y1207D01*
X1388Y1207D02*
X1395Y1207D01*
X1879Y1207D02*
X1887Y1207D01*
X11Y1206D02*
X20Y1206D01*
X1388Y1206D02*
X1395Y1206D01*
X1879Y1206D02*
X1887Y1206D01*
X11Y1205D02*
X20Y1205D01*
X1388Y1205D02*
X1395Y1205D01*
X1879Y1205D02*
X1887Y1205D01*
X11Y1204D02*
X20Y1204D01*
X1388Y1204D02*
X1395Y1204D01*
X1879Y1204D02*
X1887Y1204D01*
X11Y1203D02*
X20Y1203D01*
X1388Y1203D02*
X1395Y1203D01*
X1879Y1203D02*
X1887Y1203D01*
X11Y1202D02*
X20Y1202D01*
X1388Y1202D02*
X1395Y1202D01*
X1879Y1202D02*
X1887Y1202D01*
X11Y1201D02*
X20Y1201D01*
X1388Y1201D02*
X1395Y1201D01*
X1879Y1201D02*
X1887Y1201D01*
X11Y1200D02*
X20Y1200D01*
X1388Y1200D02*
X1395Y1200D01*
X1879Y1200D02*
X1887Y1200D01*
X11Y1199D02*
X20Y1199D01*
X1388Y1199D02*
X1395Y1199D01*
X1879Y1199D02*
X1887Y1199D01*
X11Y1198D02*
X20Y1198D01*
X1388Y1198D02*
X1395Y1198D01*
X1879Y1198D02*
X1887Y1198D01*
X11Y1197D02*
X20Y1197D01*
X1388Y1197D02*
X1395Y1197D01*
X1879Y1197D02*
X1887Y1197D01*
X11Y1196D02*
X20Y1196D01*
X1388Y1196D02*
X1395Y1196D01*
X1879Y1196D02*
X1887Y1196D01*
X11Y1195D02*
X20Y1195D01*
X1388Y1195D02*
X1395Y1195D01*
X1879Y1195D02*
X1887Y1195D01*
X11Y1194D02*
X20Y1194D01*
X1388Y1194D02*
X1395Y1194D01*
X1879Y1194D02*
X1887Y1194D01*
X11Y1193D02*
X20Y1193D01*
X1388Y1193D02*
X1395Y1193D01*
X1879Y1193D02*
X1887Y1193D01*
X11Y1192D02*
X20Y1192D01*
X1388Y1192D02*
X1395Y1192D01*
X1879Y1192D02*
X1887Y1192D01*
X11Y1191D02*
X20Y1191D01*
X1388Y1191D02*
X1395Y1191D01*
X1879Y1191D02*
X1887Y1191D01*
X11Y1190D02*
X20Y1190D01*
X1388Y1190D02*
X1395Y1190D01*
X1879Y1190D02*
X1887Y1190D01*
X11Y1189D02*
X20Y1189D01*
X1388Y1189D02*
X1395Y1189D01*
X1879Y1189D02*
X1887Y1189D01*
X11Y1188D02*
X20Y1188D01*
X1388Y1188D02*
X1395Y1188D01*
X1879Y1188D02*
X1887Y1188D01*
X11Y1187D02*
X20Y1187D01*
X1388Y1187D02*
X1395Y1187D01*
X1879Y1187D02*
X1887Y1187D01*
X11Y1186D02*
X20Y1186D01*
X1388Y1186D02*
X1395Y1186D01*
X1879Y1186D02*
X1887Y1186D01*
X11Y1185D02*
X20Y1185D01*
X1388Y1185D02*
X1395Y1185D01*
X1879Y1185D02*
X1887Y1185D01*
X11Y1184D02*
X20Y1184D01*
X1388Y1184D02*
X1395Y1184D01*
X1879Y1184D02*
X1887Y1184D01*
X11Y1183D02*
X20Y1183D01*
X1388Y1183D02*
X1395Y1183D01*
X1879Y1183D02*
X1887Y1183D01*
X11Y1182D02*
X20Y1182D01*
X1388Y1182D02*
X1395Y1182D01*
X1879Y1182D02*
X1887Y1182D01*
X11Y1181D02*
X20Y1181D01*
X1388Y1181D02*
X1395Y1181D01*
X1879Y1181D02*
X1887Y1181D01*
X11Y1180D02*
X20Y1180D01*
X1388Y1180D02*
X1395Y1180D01*
X1879Y1180D02*
X1887Y1180D01*
X11Y1179D02*
X20Y1179D01*
X1388Y1179D02*
X1395Y1179D01*
X1879Y1179D02*
X1887Y1179D01*
X11Y1178D02*
X20Y1178D01*
X1388Y1178D02*
X1395Y1178D01*
X1879Y1178D02*
X1887Y1178D01*
X11Y1177D02*
X20Y1177D01*
X1388Y1177D02*
X1395Y1177D01*
X1879Y1177D02*
X1887Y1177D01*
X11Y1176D02*
X20Y1176D01*
X1388Y1176D02*
X1395Y1176D01*
X1879Y1176D02*
X1887Y1176D01*
X11Y1175D02*
X20Y1175D01*
X1388Y1175D02*
X1395Y1175D01*
X1879Y1175D02*
X1887Y1175D01*
X11Y1174D02*
X20Y1174D01*
X1388Y1174D02*
X1395Y1174D01*
X1879Y1174D02*
X1887Y1174D01*
X11Y1173D02*
X20Y1173D01*
X1388Y1173D02*
X1395Y1173D01*
X1879Y1173D02*
X1887Y1173D01*
X11Y1172D02*
X20Y1172D01*
X1388Y1172D02*
X1395Y1172D01*
X1879Y1172D02*
X1887Y1172D01*
X11Y1171D02*
X20Y1171D01*
X1388Y1171D02*
X1395Y1171D01*
X1879Y1171D02*
X1887Y1171D01*
X11Y1170D02*
X20Y1170D01*
X1388Y1170D02*
X1395Y1170D01*
X1879Y1170D02*
X1887Y1170D01*
X11Y1169D02*
X20Y1169D01*
X1388Y1169D02*
X1395Y1169D01*
X1879Y1169D02*
X1887Y1169D01*
X11Y1168D02*
X20Y1168D01*
X1388Y1168D02*
X1395Y1168D01*
X1879Y1168D02*
X1887Y1168D01*
X11Y1167D02*
X20Y1167D01*
X1388Y1167D02*
X1395Y1167D01*
X1879Y1167D02*
X1887Y1167D01*
X11Y1166D02*
X20Y1166D01*
X1388Y1166D02*
X1395Y1166D01*
X1879Y1166D02*
X1887Y1166D01*
X11Y1165D02*
X20Y1165D01*
X1388Y1165D02*
X1395Y1165D01*
X1879Y1165D02*
X1887Y1165D01*
X11Y1164D02*
X20Y1164D01*
X1388Y1164D02*
X1395Y1164D01*
X1879Y1164D02*
X1887Y1164D01*
X11Y1163D02*
X20Y1163D01*
X1388Y1163D02*
X1395Y1163D01*
X1879Y1163D02*
X1887Y1163D01*
X11Y1162D02*
X20Y1162D01*
X1388Y1162D02*
X1395Y1162D01*
X1879Y1162D02*
X1887Y1162D01*
X11Y1161D02*
X20Y1161D01*
X1388Y1161D02*
X1395Y1161D01*
X1879Y1161D02*
X1887Y1161D01*
X11Y1160D02*
X20Y1160D01*
X1388Y1160D02*
X1395Y1160D01*
X1879Y1160D02*
X1887Y1160D01*
X11Y1159D02*
X20Y1159D01*
X1388Y1159D02*
X1395Y1159D01*
X1879Y1159D02*
X1887Y1159D01*
X11Y1158D02*
X20Y1158D01*
X1388Y1158D02*
X1395Y1158D01*
X1879Y1158D02*
X1887Y1158D01*
X11Y1157D02*
X20Y1157D01*
X1388Y1157D02*
X1395Y1157D01*
X1879Y1157D02*
X1887Y1157D01*
X11Y1156D02*
X20Y1156D01*
X1388Y1156D02*
X1395Y1156D01*
X1879Y1156D02*
X1887Y1156D01*
X11Y1155D02*
X20Y1155D01*
X1388Y1155D02*
X1395Y1155D01*
X1879Y1155D02*
X1887Y1155D01*
X11Y1154D02*
X20Y1154D01*
X1388Y1154D02*
X1395Y1154D01*
X1879Y1154D02*
X1887Y1154D01*
X11Y1153D02*
X20Y1153D01*
X1388Y1153D02*
X1395Y1153D01*
X1879Y1153D02*
X1887Y1153D01*
X11Y1152D02*
X20Y1152D01*
X1388Y1152D02*
X1395Y1152D01*
X1879Y1152D02*
X1887Y1152D01*
X11Y1151D02*
X20Y1151D01*
X1388Y1151D02*
X1395Y1151D01*
X1879Y1151D02*
X1887Y1151D01*
X11Y1150D02*
X20Y1150D01*
X1388Y1150D02*
X1395Y1150D01*
X1879Y1150D02*
X1887Y1150D01*
X11Y1149D02*
X20Y1149D01*
X1388Y1149D02*
X1395Y1149D01*
X1879Y1149D02*
X1887Y1149D01*
X11Y1148D02*
X20Y1148D01*
X1388Y1148D02*
X1395Y1148D01*
X1879Y1148D02*
X1887Y1148D01*
X11Y1147D02*
X20Y1147D01*
X1388Y1147D02*
X1395Y1147D01*
X1879Y1147D02*
X1887Y1147D01*
X11Y1146D02*
X20Y1146D01*
X1388Y1146D02*
X1395Y1146D01*
X1879Y1146D02*
X1887Y1146D01*
X11Y1145D02*
X20Y1145D01*
X1388Y1145D02*
X1395Y1145D01*
X1879Y1145D02*
X1887Y1145D01*
X11Y1144D02*
X20Y1144D01*
X1388Y1144D02*
X1395Y1144D01*
X1879Y1144D02*
X1887Y1144D01*
X11Y1143D02*
X20Y1143D01*
X1388Y1143D02*
X1395Y1143D01*
X1879Y1143D02*
X1887Y1143D01*
X11Y1142D02*
X20Y1142D01*
X1388Y1142D02*
X1395Y1142D01*
X1879Y1142D02*
X1887Y1142D01*
X11Y1141D02*
X20Y1141D01*
X1388Y1141D02*
X1395Y1141D01*
X1879Y1141D02*
X1887Y1141D01*
X11Y1140D02*
X20Y1140D01*
X1388Y1140D02*
X1395Y1140D01*
X1879Y1140D02*
X1887Y1140D01*
X11Y1139D02*
X20Y1139D01*
X1388Y1139D02*
X1395Y1139D01*
X1879Y1139D02*
X1887Y1139D01*
X11Y1138D02*
X20Y1138D01*
X1388Y1138D02*
X1395Y1138D01*
X1879Y1138D02*
X1887Y1138D01*
X11Y1137D02*
X20Y1137D01*
X1388Y1137D02*
X1395Y1137D01*
X1879Y1137D02*
X1887Y1137D01*
X11Y1136D02*
X20Y1136D01*
X1388Y1136D02*
X1395Y1136D01*
X1879Y1136D02*
X1887Y1136D01*
X11Y1135D02*
X20Y1135D01*
X1388Y1135D02*
X1395Y1135D01*
X1879Y1135D02*
X1887Y1135D01*
X11Y1134D02*
X20Y1134D01*
X1388Y1134D02*
X1395Y1134D01*
X1879Y1134D02*
X1887Y1134D01*
X11Y1133D02*
X20Y1133D01*
X1388Y1133D02*
X1395Y1133D01*
X1879Y1133D02*
X1887Y1133D01*
X11Y1132D02*
X20Y1132D01*
X1388Y1132D02*
X1395Y1132D01*
X1879Y1132D02*
X1887Y1132D01*
X11Y1131D02*
X20Y1131D01*
X1388Y1131D02*
X1395Y1131D01*
X1879Y1131D02*
X1887Y1131D01*
X11Y1130D02*
X20Y1130D01*
X1388Y1130D02*
X1395Y1130D01*
X1879Y1130D02*
X1887Y1130D01*
X11Y1129D02*
X20Y1129D01*
X1388Y1129D02*
X1395Y1129D01*
X1879Y1129D02*
X1887Y1129D01*
X11Y1128D02*
X20Y1128D01*
X1388Y1128D02*
X1395Y1128D01*
X1879Y1128D02*
X1887Y1128D01*
X11Y1127D02*
X20Y1127D01*
X1388Y1127D02*
X1395Y1127D01*
X1879Y1127D02*
X1887Y1127D01*
X11Y1126D02*
X20Y1126D01*
X1388Y1126D02*
X1395Y1126D01*
X1879Y1126D02*
X1887Y1126D01*
X11Y1125D02*
X20Y1125D01*
X1388Y1125D02*
X1395Y1125D01*
X1879Y1125D02*
X1887Y1125D01*
X11Y1124D02*
X20Y1124D01*
X1388Y1124D02*
X1395Y1124D01*
X1879Y1124D02*
X1887Y1124D01*
X11Y1123D02*
X20Y1123D01*
X1388Y1123D02*
X1395Y1123D01*
X1879Y1123D02*
X1887Y1123D01*
X11Y1122D02*
X20Y1122D01*
X1388Y1122D02*
X1395Y1122D01*
X1879Y1122D02*
X1887Y1122D01*
X11Y1121D02*
X20Y1121D01*
X1388Y1121D02*
X1395Y1121D01*
X1879Y1121D02*
X1887Y1121D01*
X11Y1120D02*
X20Y1120D01*
X1388Y1120D02*
X1395Y1120D01*
X1879Y1120D02*
X1887Y1120D01*
X11Y1119D02*
X20Y1119D01*
X1388Y1119D02*
X1395Y1119D01*
X1879Y1119D02*
X1887Y1119D01*
X11Y1118D02*
X20Y1118D01*
X1388Y1118D02*
X1395Y1118D01*
X1879Y1118D02*
X1887Y1118D01*
X11Y1117D02*
X20Y1117D01*
X1388Y1117D02*
X1395Y1117D01*
X1879Y1117D02*
X1887Y1117D01*
X11Y1116D02*
X20Y1116D01*
X1388Y1116D02*
X1395Y1116D01*
X1879Y1116D02*
X1887Y1116D01*
X11Y1115D02*
X20Y1115D01*
X1388Y1115D02*
X1395Y1115D01*
X1879Y1115D02*
X1887Y1115D01*
X11Y1114D02*
X20Y1114D01*
X1388Y1114D02*
X1395Y1114D01*
X1879Y1114D02*
X1887Y1114D01*
X11Y1113D02*
X20Y1113D01*
X1388Y1113D02*
X1395Y1113D01*
X1879Y1113D02*
X1887Y1113D01*
X11Y1112D02*
X20Y1112D01*
X1388Y1112D02*
X1395Y1112D01*
X1879Y1112D02*
X1887Y1112D01*
X11Y1111D02*
X20Y1111D01*
X1388Y1111D02*
X1395Y1111D01*
X1879Y1111D02*
X1887Y1111D01*
X11Y1110D02*
X20Y1110D01*
X1388Y1110D02*
X1395Y1110D01*
X1879Y1110D02*
X1887Y1110D01*
X11Y1109D02*
X20Y1109D01*
X1388Y1109D02*
X1395Y1109D01*
X1879Y1109D02*
X1887Y1109D01*
X11Y1108D02*
X20Y1108D01*
X1388Y1108D02*
X1395Y1108D01*
X1879Y1108D02*
X1887Y1108D01*
X11Y1107D02*
X20Y1107D01*
X1388Y1107D02*
X1395Y1107D01*
X1879Y1107D02*
X1887Y1107D01*
X11Y1106D02*
X20Y1106D01*
X1388Y1106D02*
X1395Y1106D01*
X1879Y1106D02*
X1887Y1106D01*
X11Y1105D02*
X20Y1105D01*
X1388Y1105D02*
X1395Y1105D01*
X1879Y1105D02*
X1887Y1105D01*
X11Y1104D02*
X20Y1104D01*
X1388Y1104D02*
X1395Y1104D01*
X1879Y1104D02*
X1887Y1104D01*
X11Y1103D02*
X20Y1103D01*
X1388Y1103D02*
X1395Y1103D01*
X1879Y1103D02*
X1887Y1103D01*
X11Y1102D02*
X20Y1102D01*
X1388Y1102D02*
X1395Y1102D01*
X1879Y1102D02*
X1887Y1102D01*
X11Y1101D02*
X20Y1101D01*
X1388Y1101D02*
X1395Y1101D01*
X1879Y1101D02*
X1887Y1101D01*
X11Y1100D02*
X20Y1100D01*
X1388Y1100D02*
X1395Y1100D01*
X1879Y1100D02*
X1887Y1100D01*
X11Y1099D02*
X20Y1099D01*
X1388Y1099D02*
X1395Y1099D01*
X1879Y1099D02*
X1887Y1099D01*
X11Y1098D02*
X20Y1098D01*
X1388Y1098D02*
X1395Y1098D01*
X1879Y1098D02*
X1887Y1098D01*
X11Y1097D02*
X20Y1097D01*
X1388Y1097D02*
X1395Y1097D01*
X1879Y1097D02*
X1887Y1097D01*
X11Y1096D02*
X20Y1096D01*
X1388Y1096D02*
X1395Y1096D01*
X1879Y1096D02*
X1887Y1096D01*
X11Y1095D02*
X20Y1095D01*
X1388Y1095D02*
X1395Y1095D01*
X1879Y1095D02*
X1887Y1095D01*
X11Y1094D02*
X20Y1094D01*
X1388Y1094D02*
X1395Y1094D01*
X1879Y1094D02*
X1887Y1094D01*
X11Y1093D02*
X20Y1093D01*
X1388Y1093D02*
X1395Y1093D01*
X1879Y1093D02*
X1887Y1093D01*
X11Y1092D02*
X20Y1092D01*
X1388Y1092D02*
X1395Y1092D01*
X1879Y1092D02*
X1887Y1092D01*
X11Y1091D02*
X20Y1091D01*
X1388Y1091D02*
X1395Y1091D01*
X1879Y1091D02*
X1887Y1091D01*
X11Y1090D02*
X20Y1090D01*
X1388Y1090D02*
X1395Y1090D01*
X1879Y1090D02*
X1887Y1090D01*
X11Y1089D02*
X20Y1089D01*
X1388Y1089D02*
X1395Y1089D01*
X1879Y1089D02*
X1887Y1089D01*
X11Y1088D02*
X20Y1088D01*
X1388Y1088D02*
X1395Y1088D01*
X1879Y1088D02*
X1887Y1088D01*
X11Y1087D02*
X20Y1087D01*
X1388Y1087D02*
X1395Y1087D01*
X1879Y1087D02*
X1887Y1087D01*
X11Y1086D02*
X20Y1086D01*
X1388Y1086D02*
X1395Y1086D01*
X1879Y1086D02*
X1887Y1086D01*
X11Y1085D02*
X20Y1085D01*
X1388Y1085D02*
X1395Y1085D01*
X1879Y1085D02*
X1887Y1085D01*
X11Y1084D02*
X20Y1084D01*
X1388Y1084D02*
X1395Y1084D01*
X1879Y1084D02*
X1887Y1084D01*
X11Y1083D02*
X20Y1083D01*
X1388Y1083D02*
X1395Y1083D01*
X1879Y1083D02*
X1887Y1083D01*
X11Y1082D02*
X20Y1082D01*
X1388Y1082D02*
X1395Y1082D01*
X1879Y1082D02*
X1887Y1082D01*
X11Y1081D02*
X20Y1081D01*
X1388Y1081D02*
X1395Y1081D01*
X1879Y1081D02*
X1887Y1081D01*
X11Y1080D02*
X20Y1080D01*
X1388Y1080D02*
X1395Y1080D01*
X1879Y1080D02*
X1887Y1080D01*
X11Y1079D02*
X20Y1079D01*
X1388Y1079D02*
X1395Y1079D01*
X1879Y1079D02*
X1887Y1079D01*
X11Y1078D02*
X20Y1078D01*
X1388Y1078D02*
X1395Y1078D01*
X1879Y1078D02*
X1887Y1078D01*
X11Y1077D02*
X20Y1077D01*
X1388Y1077D02*
X1395Y1077D01*
X1879Y1077D02*
X1887Y1077D01*
X11Y1076D02*
X20Y1076D01*
X1388Y1076D02*
X1395Y1076D01*
X1879Y1076D02*
X1887Y1076D01*
X11Y1075D02*
X20Y1075D01*
X1388Y1075D02*
X1395Y1075D01*
X1879Y1075D02*
X1887Y1075D01*
X11Y1074D02*
X20Y1074D01*
X1388Y1074D02*
X1395Y1074D01*
X1879Y1074D02*
X1887Y1074D01*
X11Y1073D02*
X20Y1073D01*
X1388Y1073D02*
X1395Y1073D01*
X1879Y1073D02*
X1887Y1073D01*
X11Y1072D02*
X20Y1072D01*
X1388Y1072D02*
X1395Y1072D01*
X1879Y1072D02*
X1887Y1072D01*
X11Y1071D02*
X20Y1071D01*
X1388Y1071D02*
X1395Y1071D01*
X1879Y1071D02*
X1887Y1071D01*
X11Y1070D02*
X20Y1070D01*
X1388Y1070D02*
X1395Y1070D01*
X1879Y1070D02*
X1887Y1070D01*
X11Y1069D02*
X20Y1069D01*
X1388Y1069D02*
X1395Y1069D01*
X1879Y1069D02*
X1887Y1069D01*
X11Y1068D02*
X20Y1068D01*
X1388Y1068D02*
X1395Y1068D01*
X1879Y1068D02*
X1887Y1068D01*
X11Y1067D02*
X20Y1067D01*
X1388Y1067D02*
X1395Y1067D01*
X1879Y1067D02*
X1887Y1067D01*
X11Y1066D02*
X20Y1066D01*
X1388Y1066D02*
X1395Y1066D01*
X1879Y1066D02*
X1887Y1066D01*
X11Y1065D02*
X20Y1065D01*
X1388Y1065D02*
X1395Y1065D01*
X1879Y1065D02*
X1887Y1065D01*
X11Y1064D02*
X20Y1064D01*
X1388Y1064D02*
X1395Y1064D01*
X1879Y1064D02*
X1887Y1064D01*
X11Y1063D02*
X20Y1063D01*
X1388Y1063D02*
X1395Y1063D01*
X1879Y1063D02*
X1887Y1063D01*
X11Y1062D02*
X20Y1062D01*
X1388Y1062D02*
X1395Y1062D01*
X1879Y1062D02*
X1887Y1062D01*
X11Y1061D02*
X20Y1061D01*
X1388Y1061D02*
X1395Y1061D01*
X1879Y1061D02*
X1887Y1061D01*
X11Y1060D02*
X20Y1060D01*
X1388Y1060D02*
X1395Y1060D01*
X1879Y1060D02*
X1887Y1060D01*
X11Y1059D02*
X20Y1059D01*
X1388Y1059D02*
X1395Y1059D01*
X1879Y1059D02*
X1887Y1059D01*
X11Y1058D02*
X20Y1058D01*
X1388Y1058D02*
X1395Y1058D01*
X1879Y1058D02*
X1887Y1058D01*
X11Y1057D02*
X20Y1057D01*
X1388Y1057D02*
X1395Y1057D01*
X1879Y1057D02*
X1887Y1057D01*
X11Y1056D02*
X20Y1056D01*
X1388Y1056D02*
X1395Y1056D01*
X1879Y1056D02*
X1887Y1056D01*
X11Y1055D02*
X20Y1055D01*
X1388Y1055D02*
X1395Y1055D01*
X1879Y1055D02*
X1887Y1055D01*
X11Y1054D02*
X20Y1054D01*
X1388Y1054D02*
X1395Y1054D01*
X1879Y1054D02*
X1887Y1054D01*
X11Y1053D02*
X20Y1053D01*
X1388Y1053D02*
X1395Y1053D01*
X1879Y1053D02*
X1887Y1053D01*
X11Y1052D02*
X20Y1052D01*
X1388Y1052D02*
X1395Y1052D01*
X1879Y1052D02*
X1887Y1052D01*
X11Y1051D02*
X20Y1051D01*
X1388Y1051D02*
X1395Y1051D01*
X1879Y1051D02*
X1887Y1051D01*
X11Y1050D02*
X20Y1050D01*
X1388Y1050D02*
X1395Y1050D01*
X1879Y1050D02*
X1887Y1050D01*
X11Y1049D02*
X20Y1049D01*
X1388Y1049D02*
X1395Y1049D01*
X1879Y1049D02*
X1887Y1049D01*
X11Y1048D02*
X20Y1048D01*
X1388Y1048D02*
X1395Y1048D01*
X1879Y1048D02*
X1887Y1048D01*
X11Y1047D02*
X20Y1047D01*
X1388Y1047D02*
X1395Y1047D01*
X1879Y1047D02*
X1887Y1047D01*
X11Y1046D02*
X20Y1046D01*
X1388Y1046D02*
X1395Y1046D01*
X1879Y1046D02*
X1887Y1046D01*
X11Y1045D02*
X20Y1045D01*
X1388Y1045D02*
X1395Y1045D01*
X1879Y1045D02*
X1887Y1045D01*
X11Y1044D02*
X20Y1044D01*
X1388Y1044D02*
X1395Y1044D01*
X1879Y1044D02*
X1887Y1044D01*
X11Y1043D02*
X20Y1043D01*
X1388Y1043D02*
X1395Y1043D01*
X1879Y1043D02*
X1887Y1043D01*
X11Y1042D02*
X20Y1042D01*
X1388Y1042D02*
X1395Y1042D01*
X1879Y1042D02*
X1887Y1042D01*
X11Y1041D02*
X20Y1041D01*
X1388Y1041D02*
X1395Y1041D01*
X1879Y1041D02*
X1887Y1041D01*
X11Y1040D02*
X20Y1040D01*
X1388Y1040D02*
X1395Y1040D01*
X1879Y1040D02*
X1887Y1040D01*
X11Y1039D02*
X20Y1039D01*
X1388Y1039D02*
X1395Y1039D01*
X1879Y1039D02*
X1887Y1039D01*
X11Y1038D02*
X20Y1038D01*
X1388Y1038D02*
X1395Y1038D01*
X1879Y1038D02*
X1887Y1038D01*
X11Y1037D02*
X20Y1037D01*
X1388Y1037D02*
X1395Y1037D01*
X1879Y1037D02*
X1887Y1037D01*
X11Y1036D02*
X20Y1036D01*
X1388Y1036D02*
X1395Y1036D01*
X1879Y1036D02*
X1887Y1036D01*
X11Y1035D02*
X20Y1035D01*
X1388Y1035D02*
X1395Y1035D01*
X1879Y1035D02*
X1887Y1035D01*
X11Y1034D02*
X20Y1034D01*
X1388Y1034D02*
X1395Y1034D01*
X1879Y1034D02*
X1887Y1034D01*
X11Y1033D02*
X20Y1033D01*
X1388Y1033D02*
X1395Y1033D01*
X1879Y1033D02*
X1887Y1033D01*
X11Y1032D02*
X20Y1032D01*
X1388Y1032D02*
X1395Y1032D01*
X1879Y1032D02*
X1887Y1032D01*
X11Y1031D02*
X20Y1031D01*
X1388Y1031D02*
X1395Y1031D01*
X1879Y1031D02*
X1887Y1031D01*
X11Y1030D02*
X20Y1030D01*
X1388Y1030D02*
X1395Y1030D01*
X1879Y1030D02*
X1887Y1030D01*
X11Y1029D02*
X20Y1029D01*
X1388Y1029D02*
X1395Y1029D01*
X1879Y1029D02*
X1887Y1029D01*
X11Y1028D02*
X20Y1028D01*
X1388Y1028D02*
X1395Y1028D01*
X1879Y1028D02*
X1887Y1028D01*
X11Y1027D02*
X20Y1027D01*
X1388Y1027D02*
X1395Y1027D01*
X1879Y1027D02*
X1887Y1027D01*
X11Y1026D02*
X20Y1026D01*
X1388Y1026D02*
X1395Y1026D01*
X1879Y1026D02*
X1887Y1026D01*
X11Y1025D02*
X20Y1025D01*
X1388Y1025D02*
X1395Y1025D01*
X1879Y1025D02*
X1887Y1025D01*
X11Y1024D02*
X20Y1024D01*
X1388Y1024D02*
X1395Y1024D01*
X1879Y1024D02*
X1887Y1024D01*
X11Y1023D02*
X20Y1023D01*
X1388Y1023D02*
X1395Y1023D01*
X1879Y1023D02*
X1887Y1023D01*
X11Y1022D02*
X20Y1022D01*
X1388Y1022D02*
X1395Y1022D01*
X1879Y1022D02*
X1887Y1022D01*
X11Y1021D02*
X20Y1021D01*
X1388Y1021D02*
X1395Y1021D01*
X1879Y1021D02*
X1887Y1021D01*
X11Y1020D02*
X20Y1020D01*
X1388Y1020D02*
X1395Y1020D01*
X1879Y1020D02*
X1887Y1020D01*
X11Y1019D02*
X20Y1019D01*
X1388Y1019D02*
X1395Y1019D01*
X1879Y1019D02*
X1887Y1019D01*
X11Y1018D02*
X20Y1018D01*
X1388Y1018D02*
X1395Y1018D01*
X1879Y1018D02*
X1887Y1018D01*
X11Y1017D02*
X20Y1017D01*
X1388Y1017D02*
X1395Y1017D01*
X1879Y1017D02*
X1887Y1017D01*
X11Y1016D02*
X20Y1016D01*
X1388Y1016D02*
X1395Y1016D01*
X1879Y1016D02*
X1887Y1016D01*
X11Y1015D02*
X20Y1015D01*
X1388Y1015D02*
X1395Y1015D01*
X1879Y1015D02*
X1887Y1015D01*
X11Y1014D02*
X20Y1014D01*
X1388Y1014D02*
X1395Y1014D01*
X1879Y1014D02*
X1887Y1014D01*
X11Y1013D02*
X20Y1013D01*
X1388Y1013D02*
X1395Y1013D01*
X1879Y1013D02*
X1887Y1013D01*
X11Y1012D02*
X20Y1012D01*
X1388Y1012D02*
X1395Y1012D01*
X1879Y1012D02*
X1887Y1012D01*
X11Y1011D02*
X20Y1011D01*
X1388Y1011D02*
X1395Y1011D01*
X1879Y1011D02*
X1887Y1011D01*
X11Y1010D02*
X20Y1010D01*
X1388Y1010D02*
X1395Y1010D01*
X1879Y1010D02*
X1887Y1010D01*
X11Y1009D02*
X20Y1009D01*
X1388Y1009D02*
X1395Y1009D01*
X1879Y1009D02*
X1887Y1009D01*
X11Y1008D02*
X20Y1008D01*
X1388Y1008D02*
X1395Y1008D01*
X1879Y1008D02*
X1887Y1008D01*
X11Y1007D02*
X20Y1007D01*
X1388Y1007D02*
X1395Y1007D01*
X1879Y1007D02*
X1887Y1007D01*
X11Y1006D02*
X20Y1006D01*
X1388Y1006D02*
X1395Y1006D01*
X1879Y1006D02*
X1887Y1006D01*
X11Y1005D02*
X20Y1005D01*
X1388Y1005D02*
X1395Y1005D01*
X1879Y1005D02*
X1887Y1005D01*
X11Y1004D02*
X20Y1004D01*
X1388Y1004D02*
X1395Y1004D01*
X1879Y1004D02*
X1887Y1004D01*
X11Y1003D02*
X20Y1003D01*
X1388Y1003D02*
X1395Y1003D01*
X1879Y1003D02*
X1887Y1003D01*
X11Y1002D02*
X20Y1002D01*
X1388Y1002D02*
X1395Y1002D01*
X1879Y1002D02*
X1887Y1002D01*
X11Y1001D02*
X20Y1001D01*
X1388Y1001D02*
X1395Y1001D01*
X1879Y1001D02*
X1887Y1001D01*
X11Y1000D02*
X20Y1000D01*
X1388Y1000D02*
X1395Y1000D01*
X1879Y1000D02*
X1887Y1000D01*
X11Y999D02*
X20Y999D01*
X1388Y999D02*
X1395Y999D01*
X1879Y999D02*
X1887Y999D01*
X11Y998D02*
X20Y998D01*
X1388Y998D02*
X1395Y998D01*
X1879Y998D02*
X1887Y998D01*
X11Y997D02*
X20Y997D01*
X1388Y997D02*
X1395Y997D01*
X1879Y997D02*
X1887Y997D01*
X11Y996D02*
X20Y996D01*
X1388Y996D02*
X1395Y996D01*
X1879Y996D02*
X1887Y996D01*
X11Y995D02*
X20Y995D01*
X1388Y995D02*
X1395Y995D01*
X1879Y995D02*
X1887Y995D01*
X11Y994D02*
X20Y994D01*
X1388Y994D02*
X1395Y994D01*
X1879Y994D02*
X1887Y994D01*
X11Y993D02*
X20Y993D01*
X1388Y993D02*
X1395Y993D01*
X1879Y993D02*
X1887Y993D01*
X11Y992D02*
X20Y992D01*
X1388Y992D02*
X1395Y992D01*
X1879Y992D02*
X1887Y992D01*
X11Y991D02*
X20Y991D01*
X1388Y991D02*
X1395Y991D01*
X1879Y991D02*
X1887Y991D01*
X11Y990D02*
X20Y990D01*
X1388Y990D02*
X1395Y990D01*
X1879Y990D02*
X1887Y990D01*
X11Y989D02*
X20Y989D01*
X1388Y989D02*
X1395Y989D01*
X1879Y989D02*
X1887Y989D01*
X11Y988D02*
X20Y988D01*
X1388Y988D02*
X1395Y988D01*
X1879Y988D02*
X1887Y988D01*
X11Y987D02*
X20Y987D01*
X1388Y987D02*
X1395Y987D01*
X1879Y987D02*
X1887Y987D01*
X11Y986D02*
X20Y986D01*
X1388Y986D02*
X1395Y986D01*
X1879Y986D02*
X1887Y986D01*
X11Y985D02*
X20Y985D01*
X1388Y985D02*
X1395Y985D01*
X1879Y985D02*
X1887Y985D01*
X11Y984D02*
X20Y984D01*
X1388Y984D02*
X1395Y984D01*
X1879Y984D02*
X1887Y984D01*
X11Y983D02*
X20Y983D01*
X1388Y983D02*
X1395Y983D01*
X1879Y983D02*
X1887Y983D01*
X11Y982D02*
X20Y982D01*
X1388Y982D02*
X1395Y982D01*
X1879Y982D02*
X1887Y982D01*
X11Y981D02*
X20Y981D01*
X1388Y981D02*
X1395Y981D01*
X1879Y981D02*
X1887Y981D01*
X11Y980D02*
X20Y980D01*
X1388Y980D02*
X1395Y980D01*
X1879Y980D02*
X1887Y980D01*
X11Y979D02*
X20Y979D01*
X1388Y979D02*
X1395Y979D01*
X1879Y979D02*
X1887Y979D01*
X11Y978D02*
X20Y978D01*
X1388Y978D02*
X1395Y978D01*
X1879Y978D02*
X1887Y978D01*
X11Y977D02*
X20Y977D01*
X1388Y977D02*
X1395Y977D01*
X1879Y977D02*
X1887Y977D01*
X11Y976D02*
X20Y976D01*
X1388Y976D02*
X1395Y976D01*
X1879Y976D02*
X1887Y976D01*
X11Y975D02*
X20Y975D01*
X1388Y975D02*
X1395Y975D01*
X1879Y975D02*
X1887Y975D01*
X11Y974D02*
X20Y974D01*
X1388Y974D02*
X1395Y974D01*
X1879Y974D02*
X1887Y974D01*
X11Y973D02*
X20Y973D01*
X1388Y973D02*
X1395Y973D01*
X1879Y973D02*
X1887Y973D01*
X11Y972D02*
X20Y972D01*
X1388Y972D02*
X1395Y972D01*
X1879Y972D02*
X1887Y972D01*
X11Y971D02*
X20Y971D01*
X1388Y971D02*
X1395Y971D01*
X1879Y971D02*
X1887Y971D01*
X11Y970D02*
X20Y970D01*
X1388Y970D02*
X1395Y970D01*
X1879Y970D02*
X1887Y970D01*
X11Y969D02*
X20Y969D01*
X1388Y969D02*
X1395Y969D01*
X1879Y969D02*
X1887Y969D01*
X11Y968D02*
X20Y968D01*
X1388Y968D02*
X1395Y968D01*
X1879Y968D02*
X1887Y968D01*
X11Y967D02*
X20Y967D01*
X1388Y967D02*
X1395Y967D01*
X1879Y967D02*
X1887Y967D01*
X11Y966D02*
X20Y966D01*
X1388Y966D02*
X1395Y966D01*
X1879Y966D02*
X1887Y966D01*
X11Y965D02*
X20Y965D01*
X1388Y965D02*
X1395Y965D01*
X1879Y965D02*
X1887Y965D01*
X11Y964D02*
X20Y964D01*
X1388Y964D02*
X1395Y964D01*
X1879Y964D02*
X1887Y964D01*
X11Y963D02*
X20Y963D01*
X1388Y963D02*
X1395Y963D01*
X1879Y963D02*
X1887Y963D01*
X11Y962D02*
X20Y962D01*
X1388Y962D02*
X1395Y962D01*
X1879Y962D02*
X1887Y962D01*
X11Y961D02*
X20Y961D01*
X1388Y961D02*
X1395Y961D01*
X1879Y961D02*
X1887Y961D01*
X11Y960D02*
X20Y960D01*
X1388Y960D02*
X1395Y960D01*
X1879Y960D02*
X1887Y960D01*
X11Y959D02*
X20Y959D01*
X1388Y959D02*
X1395Y959D01*
X1879Y959D02*
X1887Y959D01*
X11Y958D02*
X20Y958D01*
X1388Y958D02*
X1395Y958D01*
X1879Y958D02*
X1887Y958D01*
X11Y957D02*
X20Y957D01*
X1388Y957D02*
X1395Y957D01*
X1879Y957D02*
X1887Y957D01*
X11Y956D02*
X20Y956D01*
X1388Y956D02*
X1395Y956D01*
X1879Y956D02*
X1887Y956D01*
X11Y955D02*
X20Y955D01*
X1388Y955D02*
X1395Y955D01*
X1879Y955D02*
X1887Y955D01*
X11Y954D02*
X20Y954D01*
X1388Y954D02*
X1395Y954D01*
X1879Y954D02*
X1887Y954D01*
X11Y953D02*
X20Y953D01*
X1388Y953D02*
X1395Y953D01*
X1879Y953D02*
X1887Y953D01*
X11Y952D02*
X20Y952D01*
X1388Y952D02*
X1395Y952D01*
X1879Y952D02*
X1887Y952D01*
X11Y951D02*
X20Y951D01*
X1388Y951D02*
X1395Y951D01*
X1879Y951D02*
X1887Y951D01*
X11Y950D02*
X20Y950D01*
X1388Y950D02*
X1395Y950D01*
X1879Y950D02*
X1887Y950D01*
X11Y949D02*
X20Y949D01*
X1388Y949D02*
X1395Y949D01*
X1879Y949D02*
X1887Y949D01*
X11Y948D02*
X20Y948D01*
X1388Y948D02*
X1395Y948D01*
X1879Y948D02*
X1887Y948D01*
X11Y947D02*
X20Y947D01*
X1388Y947D02*
X1395Y947D01*
X1879Y947D02*
X1887Y947D01*
X11Y946D02*
X20Y946D01*
X1388Y946D02*
X1395Y946D01*
X1879Y946D02*
X1887Y946D01*
X11Y945D02*
X20Y945D01*
X1388Y945D02*
X1395Y945D01*
X1879Y945D02*
X1887Y945D01*
X11Y944D02*
X20Y944D01*
X1388Y944D02*
X1395Y944D01*
X1879Y944D02*
X1887Y944D01*
X11Y943D02*
X20Y943D01*
X1388Y943D02*
X1395Y943D01*
X1879Y943D02*
X1887Y943D01*
X11Y942D02*
X20Y942D01*
X1388Y942D02*
X1395Y942D01*
X1879Y942D02*
X1887Y942D01*
X11Y941D02*
X20Y941D01*
X1388Y941D02*
X1395Y941D01*
X1879Y941D02*
X1887Y941D01*
X11Y940D02*
X20Y940D01*
X1388Y940D02*
X1395Y940D01*
X1879Y940D02*
X1887Y940D01*
X11Y939D02*
X20Y939D01*
X1388Y939D02*
X1395Y939D01*
X1879Y939D02*
X1887Y939D01*
X11Y938D02*
X20Y938D01*
X1388Y938D02*
X1395Y938D01*
X1879Y938D02*
X1887Y938D01*
X11Y937D02*
X20Y937D01*
X1388Y937D02*
X1395Y937D01*
X1879Y937D02*
X1887Y937D01*
X11Y936D02*
X20Y936D01*
X1388Y936D02*
X1395Y936D01*
X1879Y936D02*
X1887Y936D01*
X11Y935D02*
X20Y935D01*
X1388Y935D02*
X1395Y935D01*
X1879Y935D02*
X1887Y935D01*
X11Y934D02*
X20Y934D01*
X1388Y934D02*
X1395Y934D01*
X1879Y934D02*
X1887Y934D01*
X11Y933D02*
X20Y933D01*
X1388Y933D02*
X1395Y933D01*
X1879Y933D02*
X1887Y933D01*
X11Y932D02*
X20Y932D01*
X1388Y932D02*
X1395Y932D01*
X1879Y932D02*
X1887Y932D01*
X11Y931D02*
X20Y931D01*
X1388Y931D02*
X1395Y931D01*
X1879Y931D02*
X1887Y931D01*
X11Y930D02*
X20Y930D01*
X1388Y930D02*
X1395Y930D01*
X1879Y930D02*
X1887Y930D01*
X11Y929D02*
X20Y929D01*
X1388Y929D02*
X1395Y929D01*
X1879Y929D02*
X1887Y929D01*
X11Y928D02*
X20Y928D01*
X1388Y928D02*
X1395Y928D01*
X1879Y928D02*
X1887Y928D01*
X11Y927D02*
X20Y927D01*
X1388Y927D02*
X1395Y927D01*
X1879Y927D02*
X1887Y927D01*
X11Y926D02*
X20Y926D01*
X1388Y926D02*
X1395Y926D01*
X1879Y926D02*
X1887Y926D01*
X11Y925D02*
X20Y925D01*
X1388Y925D02*
X1395Y925D01*
X1879Y925D02*
X1887Y925D01*
X11Y924D02*
X20Y924D01*
X1388Y924D02*
X1395Y924D01*
X1879Y924D02*
X1887Y924D01*
X11Y923D02*
X20Y923D01*
X1388Y923D02*
X1395Y923D01*
X1879Y923D02*
X1887Y923D01*
X11Y922D02*
X20Y922D01*
X1388Y922D02*
X1395Y922D01*
X1879Y922D02*
X1887Y922D01*
X11Y921D02*
X20Y921D01*
X1388Y921D02*
X1395Y921D01*
X1879Y921D02*
X1887Y921D01*
X11Y920D02*
X20Y920D01*
X1388Y920D02*
X1395Y920D01*
X1879Y920D02*
X1887Y920D01*
X11Y919D02*
X20Y919D01*
X1388Y919D02*
X1395Y919D01*
X1879Y919D02*
X1887Y919D01*
X11Y918D02*
X20Y918D01*
X1388Y918D02*
X1395Y918D01*
X1879Y918D02*
X1887Y918D01*
X11Y917D02*
X20Y917D01*
X1388Y917D02*
X1395Y917D01*
X1879Y917D02*
X1887Y917D01*
X11Y916D02*
X20Y916D01*
X1388Y916D02*
X1395Y916D01*
X1879Y916D02*
X1887Y916D01*
X11Y915D02*
X20Y915D01*
X1388Y915D02*
X1395Y915D01*
X1879Y915D02*
X1887Y915D01*
X11Y914D02*
X20Y914D01*
X1388Y914D02*
X1395Y914D01*
X1879Y914D02*
X1887Y914D01*
X11Y913D02*
X20Y913D01*
X1388Y913D02*
X1395Y913D01*
X1879Y913D02*
X1887Y913D01*
X11Y912D02*
X20Y912D01*
X1388Y912D02*
X1395Y912D01*
X1879Y912D02*
X1887Y912D01*
X11Y911D02*
X20Y911D01*
X1388Y911D02*
X1395Y911D01*
X1879Y911D02*
X1887Y911D01*
X11Y910D02*
X20Y910D01*
X1388Y910D02*
X1395Y910D01*
X1879Y910D02*
X1887Y910D01*
X11Y909D02*
X20Y909D01*
X1388Y909D02*
X1395Y909D01*
X1879Y909D02*
X1887Y909D01*
X11Y908D02*
X20Y908D01*
X1388Y908D02*
X1395Y908D01*
X1879Y908D02*
X1887Y908D01*
X11Y907D02*
X20Y907D01*
X1388Y907D02*
X1395Y907D01*
X1879Y907D02*
X1887Y907D01*
X11Y906D02*
X20Y906D01*
X1388Y906D02*
X1395Y906D01*
X1879Y906D02*
X1887Y906D01*
X11Y905D02*
X20Y905D01*
X1388Y905D02*
X1395Y905D01*
X1879Y905D02*
X1887Y905D01*
X11Y904D02*
X20Y904D01*
X1388Y904D02*
X1395Y904D01*
X1879Y904D02*
X1887Y904D01*
X11Y903D02*
X20Y903D01*
X1388Y903D02*
X1395Y903D01*
X1879Y903D02*
X1887Y903D01*
X11Y902D02*
X20Y902D01*
X1388Y902D02*
X1395Y902D01*
X1879Y902D02*
X1887Y902D01*
X11Y901D02*
X20Y901D01*
X1388Y901D02*
X1395Y901D01*
X1879Y901D02*
X1887Y901D01*
X11Y900D02*
X20Y900D01*
X1388Y900D02*
X1395Y900D01*
X1879Y900D02*
X1887Y900D01*
X11Y899D02*
X20Y899D01*
X1388Y899D02*
X1395Y899D01*
X1879Y899D02*
X1887Y899D01*
X11Y898D02*
X20Y898D01*
X1388Y898D02*
X1395Y898D01*
X1879Y898D02*
X1887Y898D01*
X11Y897D02*
X20Y897D01*
X1388Y897D02*
X1395Y897D01*
X1879Y897D02*
X1887Y897D01*
X11Y896D02*
X20Y896D01*
X1388Y896D02*
X1395Y896D01*
X1879Y896D02*
X1887Y896D01*
X11Y895D02*
X20Y895D01*
X1388Y895D02*
X1395Y895D01*
X1879Y895D02*
X1887Y895D01*
X11Y894D02*
X20Y894D01*
X1388Y894D02*
X1395Y894D01*
X1879Y894D02*
X1887Y894D01*
X11Y893D02*
X20Y893D01*
X1388Y893D02*
X1395Y893D01*
X1879Y893D02*
X1887Y893D01*
X11Y892D02*
X20Y892D01*
X1388Y892D02*
X1395Y892D01*
X1879Y892D02*
X1887Y892D01*
X11Y891D02*
X20Y891D01*
X1388Y891D02*
X1395Y891D01*
X1879Y891D02*
X1887Y891D01*
X11Y890D02*
X20Y890D01*
X1388Y890D02*
X1395Y890D01*
X1879Y890D02*
X1887Y890D01*
X11Y889D02*
X20Y889D01*
X1388Y889D02*
X1395Y889D01*
X1879Y889D02*
X1887Y889D01*
X11Y888D02*
X20Y888D01*
X1388Y888D02*
X1395Y888D01*
X1879Y888D02*
X1887Y888D01*
X11Y887D02*
X20Y887D01*
X1388Y887D02*
X1395Y887D01*
X1879Y887D02*
X1887Y887D01*
X11Y886D02*
X20Y886D01*
X1388Y886D02*
X1395Y886D01*
X1879Y886D02*
X1887Y886D01*
X11Y885D02*
X20Y885D01*
X1388Y885D02*
X1395Y885D01*
X1879Y885D02*
X1887Y885D01*
X11Y884D02*
X20Y884D01*
X1388Y884D02*
X1395Y884D01*
X1879Y884D02*
X1887Y884D01*
X11Y883D02*
X20Y883D01*
X1388Y883D02*
X1395Y883D01*
X1879Y883D02*
X1887Y883D01*
X11Y882D02*
X20Y882D01*
X1388Y882D02*
X1395Y882D01*
X1879Y882D02*
X1887Y882D01*
X11Y881D02*
X20Y881D01*
X1388Y881D02*
X1395Y881D01*
X1879Y881D02*
X1887Y881D01*
X11Y880D02*
X20Y880D01*
X1388Y880D02*
X1395Y880D01*
X1879Y880D02*
X1887Y880D01*
X11Y879D02*
X20Y879D01*
X1388Y879D02*
X1395Y879D01*
X1879Y879D02*
X1887Y879D01*
X11Y878D02*
X20Y878D01*
X1388Y878D02*
X1395Y878D01*
X1879Y878D02*
X1887Y878D01*
X11Y877D02*
X20Y877D01*
X1388Y877D02*
X1395Y877D01*
X1879Y877D02*
X1887Y877D01*
X11Y876D02*
X20Y876D01*
X1388Y876D02*
X1395Y876D01*
X1879Y876D02*
X1887Y876D01*
X11Y875D02*
X20Y875D01*
X1388Y875D02*
X1395Y875D01*
X1879Y875D02*
X1887Y875D01*
X11Y874D02*
X20Y874D01*
X1388Y874D02*
X1395Y874D01*
X1879Y874D02*
X1887Y874D01*
X11Y873D02*
X20Y873D01*
X1388Y873D02*
X1395Y873D01*
X1879Y873D02*
X1887Y873D01*
X11Y872D02*
X20Y872D01*
X1388Y872D02*
X1395Y872D01*
X1879Y872D02*
X1887Y872D01*
X11Y871D02*
X20Y871D01*
X1388Y871D02*
X1395Y871D01*
X1879Y871D02*
X1887Y871D01*
X11Y870D02*
X20Y870D01*
X1388Y870D02*
X1395Y870D01*
X1879Y870D02*
X1887Y870D01*
X11Y869D02*
X20Y869D01*
X1388Y869D02*
X1395Y869D01*
X1879Y869D02*
X1887Y869D01*
X11Y868D02*
X20Y868D01*
X1388Y868D02*
X1395Y868D01*
X1879Y868D02*
X1887Y868D01*
X11Y867D02*
X20Y867D01*
X1388Y867D02*
X1395Y867D01*
X1879Y867D02*
X1887Y867D01*
X11Y866D02*
X20Y866D01*
X1388Y866D02*
X1395Y866D01*
X1879Y866D02*
X1887Y866D01*
X11Y865D02*
X20Y865D01*
X1388Y865D02*
X1395Y865D01*
X1879Y865D02*
X1887Y865D01*
X11Y864D02*
X20Y864D01*
X1388Y864D02*
X1395Y864D01*
X1879Y864D02*
X1887Y864D01*
X11Y863D02*
X20Y863D01*
X1388Y863D02*
X1395Y863D01*
X1879Y863D02*
X1887Y863D01*
X11Y862D02*
X20Y862D01*
X1388Y862D02*
X1395Y862D01*
X1879Y862D02*
X1887Y862D01*
X11Y861D02*
X20Y861D01*
X1388Y861D02*
X1395Y861D01*
X1879Y861D02*
X1887Y861D01*
X11Y860D02*
X20Y860D01*
X1388Y860D02*
X1395Y860D01*
X1879Y860D02*
X1887Y860D01*
X11Y859D02*
X20Y859D01*
X1388Y859D02*
X1395Y859D01*
X1879Y859D02*
X1887Y859D01*
X11Y858D02*
X20Y858D01*
X1388Y858D02*
X1395Y858D01*
X1879Y858D02*
X1887Y858D01*
X11Y857D02*
X20Y857D01*
X1388Y857D02*
X1395Y857D01*
X1879Y857D02*
X1887Y857D01*
X11Y856D02*
X20Y856D01*
X1388Y856D02*
X1395Y856D01*
X1879Y856D02*
X1887Y856D01*
X11Y855D02*
X20Y855D01*
X1388Y855D02*
X1395Y855D01*
X1879Y855D02*
X1887Y855D01*
X11Y854D02*
X20Y854D01*
X1388Y854D02*
X1395Y854D01*
X1879Y854D02*
X1887Y854D01*
X11Y853D02*
X20Y853D01*
X1388Y853D02*
X1395Y853D01*
X1879Y853D02*
X1887Y853D01*
X11Y852D02*
X20Y852D01*
X1388Y852D02*
X1395Y852D01*
X1879Y852D02*
X1887Y852D01*
X11Y851D02*
X20Y851D01*
X1388Y851D02*
X1395Y851D01*
X1879Y851D02*
X1887Y851D01*
X11Y850D02*
X20Y850D01*
X1388Y850D02*
X1395Y850D01*
X1879Y850D02*
X1887Y850D01*
X11Y849D02*
X20Y849D01*
X1388Y849D02*
X1395Y849D01*
X1879Y849D02*
X1887Y849D01*
X11Y848D02*
X20Y848D01*
X1388Y848D02*
X1395Y848D01*
X1879Y848D02*
X1887Y848D01*
X11Y847D02*
X20Y847D01*
X1388Y847D02*
X1395Y847D01*
X1879Y847D02*
X1887Y847D01*
X11Y846D02*
X20Y846D01*
X1388Y846D02*
X1395Y846D01*
X1879Y846D02*
X1887Y846D01*
X11Y845D02*
X20Y845D01*
X1388Y845D02*
X1395Y845D01*
X1879Y845D02*
X1887Y845D01*
X11Y844D02*
X20Y844D01*
X1388Y844D02*
X1395Y844D01*
X1879Y844D02*
X1887Y844D01*
X11Y843D02*
X20Y843D01*
X1388Y843D02*
X1395Y843D01*
X1879Y843D02*
X1887Y843D01*
X11Y842D02*
X20Y842D01*
X1388Y842D02*
X1395Y842D01*
X1879Y842D02*
X1887Y842D01*
X11Y841D02*
X20Y841D01*
X1388Y841D02*
X1395Y841D01*
X1879Y841D02*
X1887Y841D01*
X11Y840D02*
X20Y840D01*
X1388Y840D02*
X1395Y840D01*
X1879Y840D02*
X1887Y840D01*
X11Y839D02*
X20Y839D01*
X1388Y839D02*
X1395Y839D01*
X1879Y839D02*
X1887Y839D01*
X11Y838D02*
X20Y838D01*
X1388Y838D02*
X1395Y838D01*
X1879Y838D02*
X1887Y838D01*
X11Y837D02*
X20Y837D01*
X1388Y837D02*
X1395Y837D01*
X1879Y837D02*
X1887Y837D01*
X11Y836D02*
X20Y836D01*
X1388Y836D02*
X1395Y836D01*
X1879Y836D02*
X1887Y836D01*
X11Y835D02*
X20Y835D01*
X1388Y835D02*
X1395Y835D01*
X1879Y835D02*
X1887Y835D01*
X11Y834D02*
X20Y834D01*
X1388Y834D02*
X1395Y834D01*
X1879Y834D02*
X1887Y834D01*
X11Y833D02*
X20Y833D01*
X1388Y833D02*
X1395Y833D01*
X1879Y833D02*
X1887Y833D01*
X11Y832D02*
X20Y832D01*
X1388Y832D02*
X1395Y832D01*
X1879Y832D02*
X1887Y832D01*
X11Y831D02*
X20Y831D01*
X1388Y831D02*
X1395Y831D01*
X1879Y831D02*
X1887Y831D01*
X11Y830D02*
X20Y830D01*
X1388Y830D02*
X1395Y830D01*
X1879Y830D02*
X1887Y830D01*
X11Y829D02*
X20Y829D01*
X1388Y829D02*
X1395Y829D01*
X1879Y829D02*
X1887Y829D01*
X11Y828D02*
X20Y828D01*
X1388Y828D02*
X1395Y828D01*
X1879Y828D02*
X1887Y828D01*
X11Y827D02*
X20Y827D01*
X1388Y827D02*
X1395Y827D01*
X1879Y827D02*
X1887Y827D01*
X11Y826D02*
X20Y826D01*
X1388Y826D02*
X1395Y826D01*
X1879Y826D02*
X1887Y826D01*
X11Y825D02*
X20Y825D01*
X1388Y825D02*
X1395Y825D01*
X1879Y825D02*
X1887Y825D01*
X11Y824D02*
X20Y824D01*
X1388Y824D02*
X1395Y824D01*
X1879Y824D02*
X1887Y824D01*
X11Y823D02*
X20Y823D01*
X1388Y823D02*
X1395Y823D01*
X1879Y823D02*
X1887Y823D01*
X11Y822D02*
X20Y822D01*
X1388Y822D02*
X1395Y822D01*
X1879Y822D02*
X1887Y822D01*
X11Y821D02*
X20Y821D01*
X1388Y821D02*
X1395Y821D01*
X1879Y821D02*
X1887Y821D01*
X11Y820D02*
X20Y820D01*
X1388Y820D02*
X1395Y820D01*
X1879Y820D02*
X1887Y820D01*
X11Y819D02*
X20Y819D01*
X1388Y819D02*
X1395Y819D01*
X1879Y819D02*
X1887Y819D01*
X11Y818D02*
X20Y818D01*
X1388Y818D02*
X1395Y818D01*
X1879Y818D02*
X1887Y818D01*
X11Y817D02*
X20Y817D01*
X1388Y817D02*
X1395Y817D01*
X1879Y817D02*
X1887Y817D01*
X11Y816D02*
X20Y816D01*
X1388Y816D02*
X1395Y816D01*
X1879Y816D02*
X1887Y816D01*
X11Y815D02*
X20Y815D01*
X1388Y815D02*
X1395Y815D01*
X1879Y815D02*
X1887Y815D01*
X11Y814D02*
X20Y814D01*
X1388Y814D02*
X1395Y814D01*
X1879Y814D02*
X1887Y814D01*
X11Y813D02*
X20Y813D01*
X1388Y813D02*
X1395Y813D01*
X1879Y813D02*
X1887Y813D01*
X11Y812D02*
X20Y812D01*
X1388Y812D02*
X1395Y812D01*
X1879Y812D02*
X1887Y812D01*
X11Y811D02*
X20Y811D01*
X1388Y811D02*
X1395Y811D01*
X1879Y811D02*
X1887Y811D01*
X11Y810D02*
X20Y810D01*
X1388Y810D02*
X1395Y810D01*
X1879Y810D02*
X1887Y810D01*
X11Y809D02*
X20Y809D01*
X1388Y809D02*
X1395Y809D01*
X1879Y809D02*
X1887Y809D01*
X11Y808D02*
X20Y808D01*
X1388Y808D02*
X1395Y808D01*
X1879Y808D02*
X1887Y808D01*
X11Y807D02*
X20Y807D01*
X1388Y807D02*
X1395Y807D01*
X1879Y807D02*
X1887Y807D01*
X11Y806D02*
X20Y806D01*
X1388Y806D02*
X1395Y806D01*
X1879Y806D02*
X1887Y806D01*
X11Y805D02*
X20Y805D01*
X1388Y805D02*
X1395Y805D01*
X1879Y805D02*
X1887Y805D01*
X11Y804D02*
X20Y804D01*
X1388Y804D02*
X1395Y804D01*
X1879Y804D02*
X1887Y804D01*
X11Y803D02*
X20Y803D01*
X1388Y803D02*
X1395Y803D01*
X1879Y803D02*
X1887Y803D01*
X11Y802D02*
X20Y802D01*
X1388Y802D02*
X1395Y802D01*
X1879Y802D02*
X1887Y802D01*
X11Y801D02*
X20Y801D01*
X1388Y801D02*
X1395Y801D01*
X1879Y801D02*
X1887Y801D01*
X11Y800D02*
X20Y800D01*
X1388Y800D02*
X1395Y800D01*
X1879Y800D02*
X1887Y800D01*
X11Y799D02*
X20Y799D01*
X1388Y799D02*
X1395Y799D01*
X1879Y799D02*
X1887Y799D01*
X11Y798D02*
X20Y798D01*
X1388Y798D02*
X1395Y798D01*
X1879Y798D02*
X1887Y798D01*
X11Y797D02*
X20Y797D01*
X1388Y797D02*
X1395Y797D01*
X1879Y797D02*
X1887Y797D01*
X11Y796D02*
X20Y796D01*
X1388Y796D02*
X1395Y796D01*
X1879Y796D02*
X1887Y796D01*
X11Y795D02*
X20Y795D01*
X1388Y795D02*
X1395Y795D01*
X1879Y795D02*
X1887Y795D01*
X11Y794D02*
X20Y794D01*
X1388Y794D02*
X1395Y794D01*
X1879Y794D02*
X1887Y794D01*
X11Y793D02*
X20Y793D01*
X1388Y793D02*
X1395Y793D01*
X1879Y793D02*
X1887Y793D01*
X11Y792D02*
X20Y792D01*
X1388Y792D02*
X1395Y792D01*
X1879Y792D02*
X1887Y792D01*
X11Y791D02*
X20Y791D01*
X1388Y791D02*
X1395Y791D01*
X1879Y791D02*
X1887Y791D01*
X11Y790D02*
X20Y790D01*
X1388Y790D02*
X1395Y790D01*
X1879Y790D02*
X1887Y790D01*
X11Y789D02*
X20Y789D01*
X1388Y789D02*
X1395Y789D01*
X1879Y789D02*
X1887Y789D01*
X11Y788D02*
X20Y788D01*
X1388Y788D02*
X1395Y788D01*
X1879Y788D02*
X1887Y788D01*
X11Y787D02*
X20Y787D01*
X1388Y787D02*
X1395Y787D01*
X1879Y787D02*
X1887Y787D01*
X11Y786D02*
X20Y786D01*
X1388Y786D02*
X1395Y786D01*
X1879Y786D02*
X1887Y786D01*
X11Y785D02*
X20Y785D01*
X1388Y785D02*
X1395Y785D01*
X1879Y785D02*
X1887Y785D01*
X11Y784D02*
X20Y784D01*
X1388Y784D02*
X1395Y784D01*
X1879Y784D02*
X1887Y784D01*
X11Y783D02*
X20Y783D01*
X1388Y783D02*
X1395Y783D01*
X1879Y783D02*
X1887Y783D01*
X11Y782D02*
X20Y782D01*
X1388Y782D02*
X1395Y782D01*
X1879Y782D02*
X1887Y782D01*
X11Y781D02*
X20Y781D01*
X1388Y781D02*
X1395Y781D01*
X1879Y781D02*
X1887Y781D01*
X11Y780D02*
X20Y780D01*
X1388Y780D02*
X1395Y780D01*
X1879Y780D02*
X1887Y780D01*
X11Y779D02*
X20Y779D01*
X1388Y779D02*
X1395Y779D01*
X1879Y779D02*
X1887Y779D01*
X11Y778D02*
X20Y778D01*
X1388Y778D02*
X1395Y778D01*
X1879Y778D02*
X1887Y778D01*
X11Y777D02*
X20Y777D01*
X1388Y777D02*
X1395Y777D01*
X1879Y777D02*
X1887Y777D01*
X11Y776D02*
X20Y776D01*
X1388Y776D02*
X1395Y776D01*
X1879Y776D02*
X1887Y776D01*
X11Y775D02*
X20Y775D01*
X1388Y775D02*
X1395Y775D01*
X1879Y775D02*
X1887Y775D01*
X11Y774D02*
X20Y774D01*
X1388Y774D02*
X1395Y774D01*
X1879Y774D02*
X1887Y774D01*
X11Y773D02*
X20Y773D01*
X1388Y773D02*
X1395Y773D01*
X1879Y773D02*
X1887Y773D01*
X11Y772D02*
X20Y772D01*
X1388Y772D02*
X1395Y772D01*
X1879Y772D02*
X1887Y772D01*
X11Y771D02*
X20Y771D01*
X1388Y771D02*
X1395Y771D01*
X1879Y771D02*
X1887Y771D01*
X11Y770D02*
X20Y770D01*
X1388Y770D02*
X1395Y770D01*
X1879Y770D02*
X1887Y770D01*
X11Y769D02*
X20Y769D01*
X1388Y769D02*
X1395Y769D01*
X1879Y769D02*
X1887Y769D01*
X11Y768D02*
X20Y768D01*
X1388Y768D02*
X1395Y768D01*
X1879Y768D02*
X1887Y768D01*
X11Y767D02*
X20Y767D01*
X1388Y767D02*
X1395Y767D01*
X1879Y767D02*
X1887Y767D01*
X11Y766D02*
X20Y766D01*
X1388Y766D02*
X1395Y766D01*
X1879Y766D02*
X1887Y766D01*
X11Y765D02*
X20Y765D01*
X1388Y765D02*
X1395Y765D01*
X1879Y765D02*
X1887Y765D01*
X11Y764D02*
X20Y764D01*
X1388Y764D02*
X1395Y764D01*
X1879Y764D02*
X1887Y764D01*
X11Y763D02*
X20Y763D01*
X1388Y763D02*
X1395Y763D01*
X1879Y763D02*
X1887Y763D01*
X11Y762D02*
X20Y762D01*
X1388Y762D02*
X1395Y762D01*
X1879Y762D02*
X1887Y762D01*
X11Y761D02*
X20Y761D01*
X1388Y761D02*
X1395Y761D01*
X1879Y761D02*
X1887Y761D01*
X11Y760D02*
X20Y760D01*
X1388Y760D02*
X1395Y760D01*
X1879Y760D02*
X1887Y760D01*
X11Y759D02*
X20Y759D01*
X1388Y759D02*
X1395Y759D01*
X1879Y759D02*
X1887Y759D01*
X11Y758D02*
X20Y758D01*
X1388Y758D02*
X1395Y758D01*
X1879Y758D02*
X1887Y758D01*
X11Y757D02*
X20Y757D01*
X1388Y757D02*
X1395Y757D01*
X1879Y757D02*
X1887Y757D01*
X11Y756D02*
X20Y756D01*
X1388Y756D02*
X1395Y756D01*
X1879Y756D02*
X1887Y756D01*
X11Y755D02*
X20Y755D01*
X1388Y755D02*
X1395Y755D01*
X1879Y755D02*
X1887Y755D01*
X11Y754D02*
X20Y754D01*
X1388Y754D02*
X1395Y754D01*
X1879Y754D02*
X1887Y754D01*
X11Y753D02*
X20Y753D01*
X1388Y753D02*
X1395Y753D01*
X1879Y753D02*
X1887Y753D01*
X11Y752D02*
X20Y752D01*
X1388Y752D02*
X1395Y752D01*
X1879Y752D02*
X1887Y752D01*
X11Y751D02*
X20Y751D01*
X1388Y751D02*
X1395Y751D01*
X1879Y751D02*
X1887Y751D01*
X11Y750D02*
X20Y750D01*
X1388Y750D02*
X1395Y750D01*
X1879Y750D02*
X1887Y750D01*
X11Y749D02*
X20Y749D01*
X1388Y749D02*
X1395Y749D01*
X1879Y749D02*
X1887Y749D01*
X11Y748D02*
X20Y748D01*
X1388Y748D02*
X1395Y748D01*
X1879Y748D02*
X1887Y748D01*
X11Y747D02*
X20Y747D01*
X1388Y747D02*
X1395Y747D01*
X1879Y747D02*
X1887Y747D01*
X11Y746D02*
X20Y746D01*
X1388Y746D02*
X1395Y746D01*
X1879Y746D02*
X1887Y746D01*
X11Y745D02*
X20Y745D01*
X1388Y745D02*
X1395Y745D01*
X1879Y745D02*
X1887Y745D01*
X11Y744D02*
X20Y744D01*
X1388Y744D02*
X1395Y744D01*
X1879Y744D02*
X1887Y744D01*
X11Y743D02*
X20Y743D01*
X1388Y743D02*
X1395Y743D01*
X1879Y743D02*
X1887Y743D01*
X11Y742D02*
X20Y742D01*
X1388Y742D02*
X1395Y742D01*
X1879Y742D02*
X1887Y742D01*
X11Y741D02*
X20Y741D01*
X1388Y741D02*
X1395Y741D01*
X1879Y741D02*
X1887Y741D01*
X11Y740D02*
X20Y740D01*
X1388Y740D02*
X1395Y740D01*
X1879Y740D02*
X1887Y740D01*
X11Y739D02*
X20Y739D01*
X1388Y739D02*
X1395Y739D01*
X1879Y739D02*
X1887Y739D01*
X11Y738D02*
X20Y738D01*
X1387Y738D02*
X1395Y738D01*
X1879Y738D02*
X1887Y738D01*
X11Y737D02*
X20Y737D01*
X1388Y737D02*
X1395Y737D01*
X1880Y737D02*
X1887Y737D01*
X11Y736D02*
X20Y736D01*
X1388Y736D02*
X1395Y736D01*
X1880Y736D02*
X1887Y736D01*
X11Y735D02*
X20Y735D01*
X1388Y735D02*
X1395Y735D01*
X1880Y735D02*
X1887Y735D01*
X11Y734D02*
X20Y734D01*
X1388Y734D02*
X1395Y734D01*
X1880Y734D02*
X1887Y734D01*
X11Y733D02*
X20Y733D01*
X1388Y733D02*
X1395Y733D01*
X1880Y733D02*
X1887Y733D01*
X11Y732D02*
X20Y732D01*
X1388Y732D02*
X1395Y732D01*
X1879Y732D02*
X1887Y732D01*
X11Y731D02*
X20Y731D01*
X1388Y731D02*
X1395Y731D01*
X1879Y731D02*
X1886Y731D01*
X11Y730D02*
X20Y730D01*
X1388Y730D02*
X1395Y730D01*
X1879Y730D02*
X1886Y730D01*
X11Y729D02*
X20Y729D01*
X1388Y729D02*
X1395Y729D01*
X1879Y729D02*
X1886Y729D01*
X11Y728D02*
X20Y728D01*
X1388Y728D02*
X1395Y728D01*
X1879Y728D02*
X1886Y728D01*
X11Y727D02*
X20Y727D01*
X1388Y727D02*
X1395Y727D01*
X1879Y727D02*
X1886Y727D01*
X11Y726D02*
X20Y726D01*
X1388Y726D02*
X1395Y726D01*
X1879Y726D02*
X1886Y726D01*
X11Y725D02*
X20Y725D01*
X1388Y725D02*
X1395Y725D01*
X1879Y725D02*
X1886Y725D01*
X11Y724D02*
X20Y724D01*
X1388Y724D02*
X1395Y724D01*
X1879Y724D02*
X1886Y724D01*
X11Y723D02*
X20Y723D01*
X1388Y723D02*
X1395Y723D01*
X1879Y723D02*
X1886Y723D01*
X11Y722D02*
X20Y722D01*
X1388Y722D02*
X1395Y722D01*
X1879Y722D02*
X1886Y722D01*
X11Y721D02*
X20Y721D01*
X1388Y721D02*
X1396Y721D01*
X1879Y721D02*
X1886Y721D01*
X11Y720D02*
X20Y720D01*
X1389Y720D02*
X1396Y720D01*
X1878Y720D02*
X1885Y720D01*
X11Y719D02*
X20Y719D01*
X1389Y719D02*
X1396Y719D01*
X1878Y719D02*
X1885Y719D01*
X11Y718D02*
X20Y718D01*
X1389Y718D02*
X1396Y718D01*
X1878Y718D02*
X1885Y718D01*
X11Y717D02*
X20Y717D01*
X1389Y717D02*
X1396Y717D01*
X1878Y717D02*
X1885Y717D01*
X11Y716D02*
X20Y716D01*
X1389Y716D02*
X1396Y716D01*
X1878Y716D02*
X1885Y716D01*
X11Y715D02*
X20Y715D01*
X1390Y715D02*
X1397Y715D01*
X1877Y715D02*
X1884Y715D01*
X11Y714D02*
X20Y714D01*
X1390Y714D02*
X1397Y714D01*
X1877Y714D02*
X1884Y714D01*
X11Y713D02*
X20Y713D01*
X1390Y713D02*
X1397Y713D01*
X1877Y713D02*
X1884Y713D01*
X11Y712D02*
X20Y712D01*
X1390Y712D02*
X1397Y712D01*
X1877Y712D02*
X1884Y712D01*
X11Y711D02*
X20Y711D01*
X1390Y711D02*
X1398Y711D01*
X1876Y711D02*
X1884Y711D01*
X11Y710D02*
X20Y710D01*
X1391Y710D02*
X1398Y710D01*
X1876Y710D02*
X1883Y710D01*
X11Y709D02*
X20Y709D01*
X1391Y709D02*
X1398Y709D01*
X1876Y709D02*
X1883Y709D01*
X11Y708D02*
X20Y708D01*
X1391Y708D02*
X1398Y708D01*
X1876Y708D02*
X1883Y708D01*
X11Y707D02*
X20Y707D01*
X1391Y707D02*
X1399Y707D01*
X1875Y707D02*
X1883Y707D01*
X11Y706D02*
X20Y706D01*
X1392Y706D02*
X1399Y706D01*
X1875Y706D02*
X1882Y706D01*
X11Y705D02*
X20Y705D01*
X1392Y705D02*
X1399Y705D01*
X1875Y705D02*
X1882Y705D01*
X11Y704D02*
X20Y704D01*
X1392Y704D02*
X1400Y704D01*
X1874Y704D02*
X1882Y704D01*
X11Y703D02*
X20Y703D01*
X1393Y703D02*
X1400Y703D01*
X1874Y703D02*
X1881Y703D01*
X11Y702D02*
X20Y702D01*
X1393Y702D02*
X1400Y702D01*
X1874Y702D02*
X1881Y702D01*
X11Y701D02*
X20Y701D01*
X1393Y701D02*
X1401Y701D01*
X1873Y701D02*
X1881Y701D01*
X11Y700D02*
X20Y700D01*
X1394Y700D02*
X1401Y700D01*
X1873Y700D02*
X1880Y700D01*
X11Y699D02*
X20Y699D01*
X1394Y699D02*
X1402Y699D01*
X1872Y699D02*
X1880Y699D01*
X11Y698D02*
X20Y698D01*
X1395Y698D02*
X1402Y698D01*
X1872Y698D02*
X1879Y698D01*
X11Y697D02*
X20Y697D01*
X1395Y697D02*
X1403Y697D01*
X1871Y697D02*
X1879Y697D01*
X11Y696D02*
X20Y696D01*
X1395Y696D02*
X1403Y696D01*
X1871Y696D02*
X1879Y696D01*
X11Y695D02*
X20Y695D01*
X1396Y695D02*
X1404Y695D01*
X1870Y695D02*
X1878Y695D01*
X11Y694D02*
X20Y694D01*
X1396Y694D02*
X1404Y694D01*
X1870Y694D02*
X1878Y694D01*
X11Y693D02*
X20Y693D01*
X1397Y693D02*
X1404Y693D01*
X1870Y693D02*
X1877Y693D01*
X11Y692D02*
X20Y692D01*
X1397Y692D02*
X1405Y692D01*
X1869Y692D02*
X1877Y692D01*
X11Y691D02*
X20Y691D01*
X1398Y691D02*
X1406Y691D01*
X1868Y691D02*
X1876Y691D01*
X11Y690D02*
X20Y690D01*
X1398Y690D02*
X1406Y690D01*
X1868Y690D02*
X1876Y690D01*
X11Y689D02*
X20Y689D01*
X1399Y689D02*
X1407Y689D01*
X1867Y689D02*
X1875Y689D01*
X11Y688D02*
X20Y688D01*
X1399Y688D02*
X1407Y688D01*
X1867Y688D02*
X1875Y688D01*
X11Y687D02*
X20Y687D01*
X1400Y687D02*
X1408Y687D01*
X1866Y687D02*
X1874Y687D01*
X11Y686D02*
X20Y686D01*
X1400Y686D02*
X1408Y686D01*
X1866Y686D02*
X1874Y686D01*
X11Y685D02*
X20Y685D01*
X1401Y685D02*
X1409Y685D01*
X1865Y685D02*
X1873Y685D01*
X11Y684D02*
X20Y684D01*
X1402Y684D02*
X1410Y684D01*
X1864Y684D02*
X1873Y684D01*
X11Y683D02*
X20Y683D01*
X1402Y683D02*
X1410Y683D01*
X1864Y683D02*
X1872Y683D01*
X11Y682D02*
X20Y682D01*
X1403Y682D02*
X1411Y682D01*
X1863Y682D02*
X1871Y682D01*
X11Y681D02*
X20Y681D01*
X1403Y681D02*
X1412Y681D01*
X1862Y681D02*
X1871Y681D01*
X11Y680D02*
X20Y680D01*
X1404Y680D02*
X1413Y680D01*
X1861Y680D02*
X1870Y680D01*
X11Y679D02*
X20Y679D01*
X1405Y679D02*
X1413Y679D01*
X1861Y679D02*
X1869Y679D01*
X11Y678D02*
X20Y678D01*
X1405Y678D02*
X1414Y678D01*
X1860Y678D02*
X1869Y678D01*
X11Y677D02*
X20Y677D01*
X1406Y677D02*
X1415Y677D01*
X1859Y677D02*
X1868Y677D01*
X11Y676D02*
X20Y676D01*
X1407Y676D02*
X1416Y676D01*
X1858Y676D02*
X1867Y676D01*
X11Y675D02*
X20Y675D01*
X1407Y675D02*
X1417Y675D01*
X1857Y675D02*
X1867Y675D01*
X11Y674D02*
X20Y674D01*
X1408Y674D02*
X1418Y674D01*
X1856Y674D02*
X1866Y674D01*
X11Y673D02*
X20Y673D01*
X1409Y673D02*
X1418Y673D01*
X1856Y673D02*
X1865Y673D01*
X11Y672D02*
X20Y672D01*
X1410Y672D02*
X1419Y672D01*
X1855Y672D02*
X1864Y672D01*
X11Y671D02*
X20Y671D01*
X1410Y671D02*
X1420Y671D01*
X1854Y671D02*
X1864Y671D01*
X11Y670D02*
X20Y670D01*
X1411Y670D02*
X1421Y670D01*
X1853Y670D02*
X1863Y670D01*
X11Y669D02*
X20Y669D01*
X1412Y669D02*
X1422Y669D01*
X1852Y669D02*
X1862Y669D01*
X11Y668D02*
X20Y668D01*
X1413Y668D02*
X1423Y668D01*
X1851Y668D02*
X1861Y668D01*
X11Y667D02*
X20Y667D01*
X1414Y667D02*
X1424Y667D01*
X1850Y667D02*
X1860Y667D01*
X11Y666D02*
X20Y666D01*
X1415Y666D02*
X1426Y666D01*
X1849Y666D02*
X1859Y666D01*
X11Y665D02*
X20Y665D01*
X1416Y665D02*
X1427Y665D01*
X1847Y665D02*
X1858Y665D01*
X11Y664D02*
X20Y664D01*
X1417Y664D02*
X1428Y664D01*
X1846Y664D02*
X1857Y664D01*
X11Y663D02*
X20Y663D01*
X1418Y663D02*
X1429Y663D01*
X1845Y663D02*
X1856Y663D01*
X11Y662D02*
X20Y662D01*
X1419Y662D02*
X1430Y662D01*
X1844Y662D02*
X1855Y662D01*
X11Y661D02*
X20Y661D01*
X1420Y661D02*
X1432Y661D01*
X1842Y661D02*
X1854Y661D01*
X11Y660D02*
X20Y660D01*
X1421Y660D02*
X1433Y660D01*
X1841Y660D02*
X1853Y660D01*
X11Y659D02*
X20Y659D01*
X1422Y659D02*
X1434Y659D01*
X1840Y659D02*
X1852Y659D01*
X11Y658D02*
X20Y658D01*
X1423Y658D02*
X1436Y658D01*
X1838Y658D02*
X1851Y658D01*
X11Y657D02*
X20Y657D01*
X1425Y657D02*
X1437Y657D01*
X1837Y657D02*
X1849Y657D01*
X11Y656D02*
X20Y656D01*
X1426Y656D02*
X1439Y656D01*
X1835Y656D02*
X1848Y656D01*
X11Y655D02*
X20Y655D01*
X1427Y655D02*
X1441Y655D01*
X1833Y655D02*
X1847Y655D01*
X11Y654D02*
X20Y654D01*
X1429Y654D02*
X1442Y654D01*
X1832Y654D02*
X1845Y654D01*
X11Y653D02*
X20Y653D01*
X1430Y653D02*
X1444Y653D01*
X1830Y653D02*
X1844Y653D01*
X11Y652D02*
X20Y652D01*
X1431Y652D02*
X1446Y652D01*
X1828Y652D02*
X1843Y652D01*
X11Y651D02*
X20Y651D01*
X1433Y651D02*
X1449Y651D01*
X1826Y651D02*
X1841Y651D01*
X11Y650D02*
X20Y650D01*
X1435Y650D02*
X1451Y650D01*
X1823Y650D02*
X1839Y650D01*
X11Y649D02*
X20Y649D01*
X1436Y649D02*
X1453Y649D01*
X1821Y649D02*
X1838Y649D01*
X11Y648D02*
X20Y648D01*
X1438Y648D02*
X1456Y648D01*
X1818Y648D02*
X1836Y648D01*
X11Y647D02*
X20Y647D01*
X1440Y647D02*
X1459Y647D01*
X1815Y647D02*
X1834Y647D01*
X11Y646D02*
X20Y646D01*
X1442Y646D02*
X1462Y646D01*
X1812Y646D02*
X1832Y646D01*
X11Y645D02*
X20Y645D01*
X1444Y645D02*
X1466Y645D01*
X1808Y645D02*
X1830Y645D01*
X11Y644D02*
X20Y644D01*
X1446Y644D02*
X1471Y644D01*
X1803Y644D02*
X1828Y644D01*
X11Y643D02*
X20Y643D01*
X1448Y643D02*
X1480Y643D01*
X1794Y643D02*
X1826Y643D01*
X11Y642D02*
X20Y642D01*
X1450Y642D02*
X1824Y642D01*
X11Y641D02*
X20Y641D01*
X1453Y641D02*
X1821Y641D01*
X11Y640D02*
X20Y640D01*
X1456Y640D02*
X1818Y640D01*
X11Y639D02*
X20Y639D01*
X1459Y639D02*
X1815Y639D01*
X11Y638D02*
X20Y638D01*
X1463Y638D02*
X1811Y638D01*
X11Y637D02*
X20Y637D01*
X1467Y637D02*
X1807Y637D01*
X11Y636D02*
X20Y636D01*
X1472Y636D02*
X1802Y636D01*
X11Y635D02*
X20Y635D01*
X1481Y635D02*
X1793Y635D01*
X11Y634D02*
X20Y634D01*
X11Y633D02*
X20Y633D01*
X11Y632D02*
X20Y632D01*
X11Y631D02*
X20Y631D01*
X11Y630D02*
X20Y630D01*
X11Y629D02*
X20Y629D01*
X11Y628D02*
X20Y628D01*
X11Y627D02*
X20Y627D01*
X11Y626D02*
X20Y626D01*
X1914Y626D02*
X1966Y626D01*
X11Y625D02*
X20Y625D01*
X1914Y625D02*
X1966Y625D01*
X11Y624D02*
X20Y624D01*
X1913Y624D02*
X1966Y624D01*
X11Y623D02*
X20Y623D01*
X1913Y623D02*
X1966Y623D01*
X11Y622D02*
X20Y622D01*
X1914Y622D02*
X1966Y622D01*
X11Y621D02*
X20Y621D01*
X1914Y621D02*
X1966Y621D01*
X11Y620D02*
X20Y620D01*
X1916Y620D02*
X1966Y620D01*
X11Y619D02*
X20Y619D01*
X1934Y619D02*
X1940Y619D01*
X1960Y619D02*
X1966Y619D01*
X11Y618D02*
X20Y618D01*
X1934Y618D02*
X1940Y618D01*
X1960Y618D02*
X1966Y618D01*
X11Y617D02*
X20Y617D01*
X1934Y617D02*
X1940Y617D01*
X1960Y617D02*
X1966Y617D01*
X11Y616D02*
X20Y616D01*
X1934Y616D02*
X1940Y616D01*
X1960Y616D02*
X1966Y616D01*
X11Y615D02*
X20Y615D01*
X1934Y615D02*
X1940Y615D01*
X1960Y615D02*
X1966Y615D01*
X11Y614D02*
X20Y614D01*
X1934Y614D02*
X1940Y614D01*
X1960Y614D02*
X1966Y614D01*
X11Y613D02*
X20Y613D01*
X1934Y613D02*
X1940Y613D01*
X1960Y613D02*
X1966Y613D01*
X11Y612D02*
X20Y612D01*
X1934Y612D02*
X1940Y612D01*
X1960Y612D02*
X1966Y612D01*
X11Y611D02*
X20Y611D01*
X1934Y611D02*
X1940Y611D01*
X1960Y611D02*
X1966Y611D01*
X11Y610D02*
X20Y610D01*
X1934Y610D02*
X1940Y610D01*
X1960Y610D02*
X1966Y610D01*
X11Y609D02*
X20Y609D01*
X1934Y609D02*
X1940Y609D01*
X1960Y609D02*
X1966Y609D01*
X11Y608D02*
X20Y608D01*
X1934Y608D02*
X1940Y608D01*
X1960Y608D02*
X1966Y608D01*
X11Y607D02*
X20Y607D01*
X1934Y607D02*
X1940Y607D01*
X1960Y607D02*
X1966Y607D01*
X11Y606D02*
X20Y606D01*
X1934Y606D02*
X1940Y606D01*
X1960Y606D02*
X1966Y606D01*
X11Y605D02*
X20Y605D01*
X1934Y605D02*
X1940Y605D01*
X1960Y605D02*
X1966Y605D01*
X11Y604D02*
X20Y604D01*
X1934Y604D02*
X1940Y604D01*
X1960Y604D02*
X1966Y604D01*
X11Y603D02*
X20Y603D01*
X1934Y603D02*
X1940Y603D01*
X1960Y603D02*
X1966Y603D01*
X11Y602D02*
X20Y602D01*
X1934Y602D02*
X1940Y602D01*
X1960Y602D02*
X1966Y602D01*
X11Y601D02*
X20Y601D01*
X1934Y601D02*
X1941Y601D01*
X1960Y601D02*
X1966Y601D01*
X11Y600D02*
X20Y600D01*
X1934Y600D02*
X1942Y600D01*
X1959Y600D02*
X1966Y600D01*
X11Y599D02*
X20Y599D01*
X1935Y599D02*
X1966Y599D01*
X11Y598D02*
X20Y598D01*
X1935Y598D02*
X1965Y598D01*
X11Y597D02*
X20Y597D01*
X1936Y597D02*
X1965Y597D01*
X11Y596D02*
X20Y596D01*
X1937Y596D02*
X1964Y596D01*
X11Y595D02*
X20Y595D01*
X1938Y595D02*
X1963Y595D01*
X11Y594D02*
X20Y594D01*
X1939Y594D02*
X1961Y594D01*
X11Y593D02*
X20Y593D01*
X1941Y593D02*
X1959Y593D01*
X11Y592D02*
X20Y592D01*
X11Y591D02*
X20Y591D01*
X11Y590D02*
X20Y590D01*
X11Y589D02*
X20Y589D01*
X11Y588D02*
X20Y588D01*
X11Y587D02*
X20Y587D01*
X11Y586D02*
X20Y586D01*
X11Y585D02*
X20Y585D01*
X11Y584D02*
X20Y584D01*
X11Y583D02*
X20Y583D01*
X11Y582D02*
X20Y582D01*
X11Y581D02*
X20Y581D01*
X11Y580D02*
X20Y580D01*
X11Y579D02*
X20Y579D01*
X11Y578D02*
X20Y578D01*
X11Y577D02*
X20Y577D01*
X11Y576D02*
X20Y576D01*
X1919Y576D02*
X1931Y576D01*
X11Y575D02*
X20Y575D01*
X1918Y575D02*
X1933Y575D01*
X11Y574D02*
X20Y574D01*
X1916Y574D02*
X1934Y574D01*
X11Y573D02*
X20Y573D01*
X1915Y573D02*
X1935Y573D01*
X11Y572D02*
X20Y572D01*
X1915Y572D02*
X1935Y572D01*
X11Y571D02*
X20Y571D01*
X1914Y571D02*
X1936Y571D01*
X11Y570D02*
X20Y570D01*
X1914Y570D02*
X1936Y570D01*
X1949Y570D02*
X1949Y570D01*
X11Y569D02*
X20Y569D01*
X1913Y569D02*
X1920Y569D01*
X1930Y569D02*
X1937Y569D01*
X1947Y569D02*
X1951Y569D01*
X11Y568D02*
X20Y568D01*
X1913Y568D02*
X1920Y568D01*
X1931Y568D02*
X1937Y568D01*
X1946Y568D02*
X1951Y568D01*
X11Y567D02*
X20Y567D01*
X1913Y567D02*
X1919Y567D01*
X1931Y567D02*
X1937Y567D01*
X1946Y567D02*
X1952Y567D01*
X11Y566D02*
X20Y566D01*
X1913Y566D02*
X1919Y566D01*
X1931Y566D02*
X1937Y566D01*
X1946Y566D02*
X1952Y566D01*
X11Y565D02*
X20Y565D01*
X1913Y565D02*
X1919Y565D01*
X1931Y565D02*
X1937Y565D01*
X1946Y565D02*
X1952Y565D01*
X11Y564D02*
X20Y564D01*
X1913Y564D02*
X1919Y564D01*
X1931Y564D02*
X1937Y564D01*
X1946Y564D02*
X1952Y564D01*
X11Y563D02*
X20Y563D01*
X1913Y563D02*
X1919Y563D01*
X1931Y563D02*
X1937Y563D01*
X1946Y563D02*
X1952Y563D01*
X11Y562D02*
X20Y562D01*
X1913Y562D02*
X1919Y562D01*
X1931Y562D02*
X1937Y562D01*
X1946Y562D02*
X1952Y562D01*
X11Y561D02*
X20Y561D01*
X1913Y561D02*
X1919Y561D01*
X1931Y561D02*
X1937Y561D01*
X1946Y561D02*
X1952Y561D01*
X11Y560D02*
X20Y560D01*
X1913Y560D02*
X1919Y560D01*
X1931Y560D02*
X1937Y560D01*
X1946Y560D02*
X1952Y560D01*
X11Y559D02*
X20Y559D01*
X1913Y559D02*
X1919Y559D01*
X1931Y559D02*
X1937Y559D01*
X1946Y559D02*
X1952Y559D01*
X11Y558D02*
X20Y558D01*
X1913Y558D02*
X1919Y558D01*
X1931Y558D02*
X1937Y558D01*
X1946Y558D02*
X1952Y558D01*
X11Y557D02*
X20Y557D01*
X1913Y557D02*
X1919Y557D01*
X1931Y557D02*
X1937Y557D01*
X1946Y557D02*
X1952Y557D01*
X11Y556D02*
X20Y556D01*
X1913Y556D02*
X1920Y556D01*
X1931Y556D02*
X1937Y556D01*
X1946Y556D02*
X1952Y556D01*
X11Y555D02*
X20Y555D01*
X1913Y555D02*
X1921Y555D01*
X1931Y555D02*
X1937Y555D01*
X1946Y555D02*
X1952Y555D01*
X11Y554D02*
X20Y554D01*
X1914Y554D02*
X1921Y554D01*
X1931Y554D02*
X1937Y554D01*
X1946Y554D02*
X1952Y554D01*
X11Y553D02*
X20Y553D01*
X1915Y553D02*
X1922Y553D01*
X1931Y553D02*
X1937Y553D01*
X1946Y553D02*
X1952Y553D01*
X11Y552D02*
X20Y552D01*
X1915Y552D02*
X1922Y552D01*
X1931Y552D02*
X1937Y552D01*
X1945Y552D02*
X1951Y552D01*
X11Y551D02*
X20Y551D01*
X1916Y551D02*
X1923Y551D01*
X1930Y551D02*
X1937Y551D01*
X1944Y551D02*
X1951Y551D01*
X11Y550D02*
X20Y550D01*
X1916Y550D02*
X1924Y550D01*
X1928Y550D02*
X1951Y550D01*
X11Y549D02*
X20Y549D01*
X1915Y549D02*
X1950Y549D01*
X11Y548D02*
X20Y548D01*
X1914Y548D02*
X1950Y548D01*
X11Y547D02*
X20Y547D01*
X1913Y547D02*
X1949Y547D01*
X11Y546D02*
X20Y546D01*
X1913Y546D02*
X1948Y546D01*
X11Y545D02*
X20Y545D01*
X1913Y545D02*
X1947Y545D01*
X11Y544D02*
X20Y544D01*
X1914Y544D02*
X1945Y544D01*
X11Y543D02*
X20Y543D01*
X1915Y543D02*
X1933Y543D01*
X11Y542D02*
X20Y542D01*
X11Y541D02*
X20Y541D01*
X11Y540D02*
X20Y540D01*
X11Y539D02*
X20Y539D01*
X11Y538D02*
X20Y538D01*
X11Y537D02*
X20Y537D01*
X11Y536D02*
X20Y536D01*
X11Y535D02*
X20Y535D01*
X11Y534D02*
X20Y534D01*
X11Y533D02*
X20Y533D01*
X11Y532D02*
X20Y532D01*
X11Y531D02*
X20Y531D01*
X11Y530D02*
X20Y530D01*
X11Y529D02*
X20Y529D01*
X11Y528D02*
X20Y528D01*
X11Y527D02*
X20Y527D01*
X11Y526D02*
X20Y526D01*
X1914Y526D02*
X1950Y526D01*
X11Y525D02*
X20Y525D01*
X1914Y525D02*
X1951Y525D01*
X11Y524D02*
X20Y524D01*
X1913Y524D02*
X1952Y524D01*
X11Y523D02*
X20Y523D01*
X1913Y523D02*
X1952Y523D01*
X11Y522D02*
X20Y522D01*
X1914Y522D02*
X1951Y522D01*
X11Y521D02*
X20Y521D01*
X1914Y521D02*
X1951Y521D01*
X11Y520D02*
X20Y520D01*
X1917Y520D02*
X1948Y520D01*
X11Y519D02*
X20Y519D01*
X1937Y519D02*
X1945Y519D01*
X11Y518D02*
X20Y518D01*
X1937Y518D02*
X1946Y518D01*
X11Y517D02*
X20Y517D01*
X1938Y517D02*
X1947Y517D01*
X11Y516D02*
X20Y516D01*
X1939Y516D02*
X1947Y516D01*
X11Y515D02*
X20Y515D01*
X1940Y515D02*
X1948Y515D01*
X11Y514D02*
X20Y514D01*
X1941Y514D02*
X1949Y514D01*
X11Y513D02*
X20Y513D01*
X1942Y513D02*
X1950Y513D01*
X11Y512D02*
X20Y512D01*
X1943Y512D02*
X1951Y512D01*
X11Y511D02*
X20Y511D01*
X1943Y511D02*
X1951Y511D01*
X11Y510D02*
X20Y510D01*
X1944Y510D02*
X1952Y510D01*
X11Y509D02*
X20Y509D01*
X1945Y509D02*
X1952Y509D01*
X11Y508D02*
X20Y508D01*
X1946Y508D02*
X1952Y508D01*
X11Y507D02*
X20Y507D01*
X1946Y507D02*
X1952Y507D01*
X11Y506D02*
X20Y506D01*
X1946Y506D02*
X1952Y506D01*
X11Y505D02*
X20Y505D01*
X1946Y505D02*
X1952Y505D01*
X11Y504D02*
X20Y504D01*
X1946Y504D02*
X1952Y504D01*
X11Y503D02*
X20Y503D01*
X1946Y503D02*
X1952Y503D01*
X11Y502D02*
X20Y502D01*
X1945Y502D02*
X1952Y502D01*
X11Y501D02*
X20Y501D01*
X1945Y501D02*
X1951Y501D01*
X11Y500D02*
X20Y500D01*
X1944Y500D02*
X1951Y500D01*
X11Y499D02*
X20Y499D01*
X1939Y499D02*
X1951Y499D01*
X11Y498D02*
X20Y498D01*
X1938Y498D02*
X1950Y498D01*
X11Y497D02*
X20Y497D01*
X1937Y497D02*
X1950Y497D01*
X11Y496D02*
X20Y496D01*
X1937Y496D02*
X1949Y496D01*
X11Y495D02*
X20Y495D01*
X1937Y495D02*
X1948Y495D01*
X11Y494D02*
X20Y494D01*
X1937Y494D02*
X1947Y494D01*
X11Y493D02*
X20Y493D01*
X1938Y493D02*
X1945Y493D01*
X11Y492D02*
X20Y492D01*
X11Y491D02*
X20Y491D01*
X11Y490D02*
X20Y490D01*
X11Y489D02*
X20Y489D01*
X11Y488D02*
X20Y488D01*
X11Y487D02*
X20Y487D01*
X11Y486D02*
X20Y486D01*
X11Y485D02*
X20Y485D01*
X11Y484D02*
X20Y484D01*
X11Y483D02*
X20Y483D01*
X11Y482D02*
X20Y482D01*
X11Y481D02*
X20Y481D01*
X11Y480D02*
X20Y480D01*
X11Y479D02*
X20Y479D01*
X11Y478D02*
X20Y478D01*
X11Y477D02*
X20Y477D01*
X11Y476D02*
X20Y476D01*
X1947Y476D02*
X1951Y476D01*
X11Y475D02*
X20Y475D01*
X1946Y475D02*
X1951Y475D01*
X11Y474D02*
X20Y474D01*
X1946Y474D02*
X1952Y474D01*
X11Y473D02*
X20Y473D01*
X1946Y473D02*
X1952Y473D01*
X11Y472D02*
X20Y472D01*
X1946Y472D02*
X1952Y472D01*
X11Y471D02*
X20Y471D01*
X1946Y471D02*
X1952Y471D01*
X11Y470D02*
X20Y470D01*
X1922Y470D02*
X1961Y470D01*
X11Y469D02*
X20Y469D01*
X1919Y469D02*
X1962Y469D01*
X11Y468D02*
X20Y468D01*
X1917Y468D02*
X1963Y468D01*
X11Y467D02*
X20Y467D01*
X1916Y467D02*
X1963Y467D01*
X11Y466D02*
X20Y466D01*
X1915Y466D02*
X1963Y466D01*
X11Y465D02*
X20Y465D01*
X1915Y465D02*
X1963Y465D01*
X11Y464D02*
X20Y464D01*
X1914Y464D02*
X1962Y464D01*
X11Y463D02*
X20Y463D01*
X1914Y463D02*
X1922Y463D01*
X1945Y463D02*
X1952Y463D01*
X11Y462D02*
X20Y462D01*
X1913Y462D02*
X1920Y462D01*
X1946Y462D02*
X1952Y462D01*
X11Y461D02*
X20Y461D01*
X1913Y461D02*
X1920Y461D01*
X1946Y461D02*
X1952Y461D01*
X11Y460D02*
X20Y460D01*
X1913Y460D02*
X1919Y460D01*
X1946Y460D02*
X1952Y460D01*
X11Y459D02*
X20Y459D01*
X1913Y459D02*
X1919Y459D01*
X1946Y459D02*
X1952Y459D01*
X11Y458D02*
X20Y458D01*
X1913Y458D02*
X1919Y458D01*
X1946Y458D02*
X1952Y458D01*
X11Y457D02*
X20Y457D01*
X1913Y457D02*
X1919Y457D01*
X1946Y457D02*
X1952Y457D01*
X11Y456D02*
X20Y456D01*
X1913Y456D02*
X1919Y456D01*
X1946Y456D02*
X1952Y456D01*
X11Y455D02*
X20Y455D01*
X1913Y455D02*
X1919Y455D01*
X1946Y455D02*
X1952Y455D01*
X11Y454D02*
X20Y454D01*
X1913Y454D02*
X1919Y454D01*
X1946Y454D02*
X1952Y454D01*
X11Y453D02*
X20Y453D01*
X1913Y453D02*
X1919Y453D01*
X1946Y453D02*
X1952Y453D01*
X11Y452D02*
X20Y452D01*
X1913Y452D02*
X1919Y452D01*
X1946Y452D02*
X1952Y452D01*
X11Y451D02*
X20Y451D01*
X1913Y451D02*
X1920Y451D01*
X1946Y451D02*
X1952Y451D01*
X11Y450D02*
X20Y450D01*
X1914Y450D02*
X1921Y450D01*
X1946Y450D02*
X1952Y450D01*
X11Y449D02*
X20Y449D01*
X1914Y449D02*
X1923Y449D01*
X1946Y449D02*
X1952Y449D01*
X11Y448D02*
X20Y448D01*
X1914Y448D02*
X1924Y448D01*
X1946Y448D02*
X1951Y448D01*
X11Y447D02*
X20Y447D01*
X1915Y447D02*
X1925Y447D01*
X1947Y447D02*
X1951Y447D01*
X11Y446D02*
X20Y446D01*
X1916Y446D02*
X1925Y446D01*
X11Y445D02*
X20Y445D01*
X1917Y445D02*
X1925Y445D01*
X11Y444D02*
X20Y444D01*
X1918Y444D02*
X1924Y444D01*
X11Y443D02*
X20Y443D01*
X1920Y443D02*
X1923Y443D01*
X11Y442D02*
X20Y442D01*
X11Y441D02*
X20Y441D01*
X11Y440D02*
X20Y440D01*
X11Y439D02*
X20Y439D01*
X11Y438D02*
X20Y438D01*
X11Y437D02*
X20Y437D01*
X11Y436D02*
X20Y436D01*
X11Y435D02*
X20Y435D01*
X11Y434D02*
X20Y434D01*
X11Y433D02*
X20Y433D01*
X11Y432D02*
X20Y432D01*
X11Y431D02*
X20Y431D01*
X11Y430D02*
X20Y430D01*
X11Y429D02*
X20Y429D01*
X11Y428D02*
X20Y428D01*
X11Y427D02*
X20Y427D01*
X11Y426D02*
X20Y426D01*
X1914Y426D02*
X1918Y426D01*
X1961Y426D02*
X1965Y426D01*
X11Y425D02*
X20Y425D01*
X1914Y425D02*
X1919Y425D01*
X1961Y425D02*
X1966Y425D01*
X11Y424D02*
X20Y424D01*
X1913Y424D02*
X1919Y424D01*
X1960Y424D02*
X1966Y424D01*
X11Y423D02*
X20Y423D01*
X1913Y423D02*
X1919Y423D01*
X1960Y423D02*
X1966Y423D01*
X11Y422D02*
X20Y422D01*
X1913Y422D02*
X1919Y422D01*
X1960Y422D02*
X1966Y422D01*
X11Y421D02*
X20Y421D01*
X1913Y421D02*
X1919Y421D01*
X1960Y421D02*
X1966Y421D01*
X11Y420D02*
X20Y420D01*
X1913Y420D02*
X1919Y420D01*
X1960Y420D02*
X1966Y420D01*
X11Y419D02*
X20Y419D01*
X1913Y419D02*
X1919Y419D01*
X1960Y419D02*
X1966Y419D01*
X11Y418D02*
X20Y418D01*
X1913Y418D02*
X1919Y418D01*
X1960Y418D02*
X1966Y418D01*
X11Y417D02*
X20Y417D01*
X1913Y417D02*
X1919Y417D01*
X1960Y417D02*
X1966Y417D01*
X11Y416D02*
X20Y416D01*
X1913Y416D02*
X1919Y416D01*
X1960Y416D02*
X1966Y416D01*
X11Y415D02*
X20Y415D01*
X1913Y415D02*
X1919Y415D01*
X1960Y415D02*
X1966Y415D01*
X11Y414D02*
X20Y414D01*
X1913Y414D02*
X1919Y414D01*
X1960Y414D02*
X1966Y414D01*
X11Y413D02*
X20Y413D01*
X1913Y413D02*
X1966Y413D01*
X11Y412D02*
X20Y412D01*
X1913Y412D02*
X1966Y412D01*
X11Y411D02*
X20Y411D01*
X1913Y411D02*
X1966Y411D01*
X11Y410D02*
X20Y410D01*
X1913Y410D02*
X1966Y410D01*
X11Y409D02*
X20Y409D01*
X1913Y409D02*
X1966Y409D01*
X11Y408D02*
X20Y408D01*
X1913Y408D02*
X1966Y408D01*
X11Y407D02*
X20Y407D01*
X1913Y407D02*
X1966Y407D01*
X11Y406D02*
X20Y406D01*
X1913Y406D02*
X1919Y406D01*
X11Y405D02*
X20Y405D01*
X1913Y405D02*
X1919Y405D01*
X11Y404D02*
X20Y404D01*
X1913Y404D02*
X1919Y404D01*
X11Y403D02*
X20Y403D01*
X1913Y403D02*
X1919Y403D01*
X11Y402D02*
X20Y402D01*
X1913Y402D02*
X1919Y402D01*
X11Y401D02*
X20Y401D01*
X1913Y401D02*
X1919Y401D01*
X11Y400D02*
X20Y400D01*
X1913Y400D02*
X1919Y400D01*
X11Y399D02*
X20Y399D01*
X1913Y399D02*
X1935Y399D01*
X11Y398D02*
X20Y398D01*
X1913Y398D02*
X1936Y398D01*
X11Y397D02*
X20Y397D01*
X1913Y397D02*
X1937Y397D01*
X11Y396D02*
X20Y396D01*
X1913Y396D02*
X1937Y396D01*
X11Y395D02*
X20Y395D01*
X1913Y395D02*
X1937Y395D01*
X11Y394D02*
X20Y394D01*
X1914Y394D02*
X1936Y394D01*
X11Y393D02*
X20Y393D01*
X1915Y393D02*
X1935Y393D01*
X11Y392D02*
X20Y392D01*
X11Y391D02*
X20Y391D01*
X11Y390D02*
X20Y390D01*
X11Y389D02*
X20Y389D01*
X11Y388D02*
X20Y388D01*
X11Y387D02*
X20Y387D01*
X11Y386D02*
X20Y386D01*
X11Y385D02*
X20Y385D01*
X11Y384D02*
X20Y384D01*
X11Y383D02*
X20Y383D01*
X11Y382D02*
X20Y382D01*
X11Y381D02*
X20Y381D01*
X11Y380D02*
X20Y380D01*
X11Y379D02*
X20Y379D01*
X11Y378D02*
X20Y378D01*
X11Y377D02*
X20Y377D01*
X11Y376D02*
X20Y376D01*
X11Y375D02*
X20Y375D01*
X11Y374D02*
X20Y374D01*
X11Y373D02*
X20Y373D01*
X11Y372D02*
X20Y372D01*
X11Y371D02*
X20Y371D01*
X11Y370D02*
X20Y370D01*
X11Y369D02*
X20Y369D01*
X11Y368D02*
X20Y368D01*
X11Y367D02*
X20Y367D01*
X11Y366D02*
X20Y366D01*
X11Y365D02*
X20Y365D01*
X11Y364D02*
X20Y364D01*
X11Y363D02*
X20Y363D01*
X11Y362D02*
X20Y362D01*
X11Y361D02*
X20Y361D01*
X11Y360D02*
X20Y360D01*
X11Y359D02*
X20Y359D01*
X11Y358D02*
X20Y358D01*
X11Y357D02*
X20Y357D01*
X11Y356D02*
X20Y356D01*
X11Y355D02*
X20Y355D01*
X11Y354D02*
X20Y354D01*
X11Y353D02*
X20Y353D01*
X11Y352D02*
X20Y352D01*
X11Y351D02*
X20Y351D01*
X11Y350D02*
X20Y350D01*
X11Y349D02*
X20Y349D01*
X11Y348D02*
X20Y348D01*
X11Y347D02*
X20Y347D01*
X11Y346D02*
X20Y346D01*
X11Y345D02*
X20Y345D01*
X11Y344D02*
X20Y344D01*
X11Y343D02*
X20Y343D01*
X11Y342D02*
X20Y342D01*
X11Y341D02*
X20Y341D01*
X11Y340D02*
X20Y340D01*
X11Y339D02*
X20Y339D01*
X11Y338D02*
X20Y338D01*
X11Y337D02*
X20Y337D01*
X11Y336D02*
X20Y336D01*
X11Y335D02*
X20Y335D01*
X11Y334D02*
X20Y334D01*
X11Y333D02*
X20Y333D01*
X11Y332D02*
X20Y332D01*
X11Y331D02*
X20Y331D01*
X11Y330D02*
X20Y330D01*
X11Y329D02*
X20Y329D01*
X11Y328D02*
X20Y328D01*
X11Y327D02*
X20Y327D01*
X11Y326D02*
X20Y326D01*
X11Y325D02*
X20Y325D01*
X11Y324D02*
X20Y324D01*
X11Y323D02*
X20Y323D01*
X11Y322D02*
X20Y322D01*
X11Y321D02*
X20Y321D01*
X11Y320D02*
X20Y320D01*
X11Y319D02*
X20Y319D01*
X11Y318D02*
X20Y318D01*
X11Y317D02*
X20Y317D01*
X11Y316D02*
X20Y316D01*
X11Y315D02*
X20Y315D01*
X11Y314D02*
X20Y314D01*
X11Y313D02*
X20Y313D01*
X11Y312D02*
X20Y312D01*
X11Y311D02*
X20Y311D01*
X11Y310D02*
X20Y310D01*
X11Y309D02*
X20Y309D01*
X11Y308D02*
X20Y308D01*
X11Y307D02*
X20Y307D01*
X11Y306D02*
X20Y306D01*
X11Y305D02*
X20Y305D01*
X11Y304D02*
X20Y304D01*
X11Y303D02*
X20Y303D01*
X11Y302D02*
X20Y302D01*
X11Y301D02*
X20Y301D01*
X11Y300D02*
X20Y300D01*
X11Y299D02*
X20Y299D01*
X11Y298D02*
X20Y298D01*
X11Y297D02*
X20Y297D01*
X11Y296D02*
X20Y296D01*
X11Y295D02*
X20Y295D01*
X11Y294D02*
X20Y294D01*
X11Y293D02*
X20Y293D01*
X11Y292D02*
X20Y292D01*
X11Y291D02*
X20Y291D01*
X11Y290D02*
X20Y290D01*
X11Y289D02*
X20Y289D01*
X11Y288D02*
X20Y288D01*
X11Y287D02*
X20Y287D01*
X11Y286D02*
X20Y286D01*
X11Y285D02*
X20Y285D01*
X11Y284D02*
X20Y284D01*
X11Y283D02*
X20Y283D01*
X11Y282D02*
X20Y282D01*
X11Y281D02*
X20Y281D01*
X11Y280D02*
X20Y280D01*
X11Y279D02*
X20Y279D01*
X11Y278D02*
X20Y278D01*
X11Y277D02*
X20Y277D01*
X11Y276D02*
X20Y276D01*
X11Y275D02*
X20Y275D01*
X11Y274D02*
X20Y274D01*
X11Y273D02*
X20Y273D01*
X11Y272D02*
X20Y272D01*
X11Y271D02*
X20Y271D01*
X11Y270D02*
X20Y270D01*
X11Y269D02*
X20Y269D01*
X11Y268D02*
X20Y268D01*
X11Y267D02*
X20Y267D01*
X11Y266D02*
X20Y266D01*
X11Y265D02*
X20Y265D01*
X11Y264D02*
X20Y264D01*
X11Y263D02*
X20Y263D01*
X11Y262D02*
X20Y262D01*
X11Y261D02*
X20Y261D01*
X11Y260D02*
X20Y260D01*
X11Y259D02*
X20Y259D01*
X11Y258D02*
X20Y258D01*
X11Y257D02*
X20Y257D01*
X11Y256D02*
X20Y256D01*
X11Y255D02*
X20Y255D01*
X11Y254D02*
X20Y254D01*
X11Y253D02*
X20Y253D01*
X11Y252D02*
X20Y252D01*
X11Y251D02*
X20Y251D01*
X11Y250D02*
X20Y250D01*
X11Y249D02*
X20Y249D01*
X11Y248D02*
X20Y248D01*
X11Y247D02*
X20Y247D01*
X11Y246D02*
X20Y246D01*
X11Y245D02*
X20Y245D01*
X11Y244D02*
X20Y244D01*
X11Y243D02*
X20Y243D01*
X11Y242D02*
X20Y242D01*
X11Y241D02*
X20Y241D01*
X11Y240D02*
X20Y240D01*
X11Y239D02*
X20Y239D01*
X11Y238D02*
X20Y238D01*
X11Y237D02*
X20Y237D01*
X11Y236D02*
X20Y236D01*
X11Y235D02*
X20Y235D01*
X11Y234D02*
X20Y234D01*
X11Y233D02*
X20Y233D01*
X11Y232D02*
X20Y232D01*
X11Y231D02*
X20Y231D01*
X11Y230D02*
X20Y230D01*
X11Y229D02*
X20Y229D01*
X11Y228D02*
X20Y228D01*
X11Y227D02*
X20Y227D01*
X11Y226D02*
X20Y226D01*
X11Y225D02*
X20Y225D01*
X11Y224D02*
X20Y224D01*
X11Y223D02*
X20Y223D01*
X11Y222D02*
X20Y222D01*
X11Y221D02*
X20Y221D01*
X11Y220D02*
X20Y220D01*
X11Y219D02*
X20Y219D01*
X11Y218D02*
X20Y218D01*
X11Y217D02*
X20Y217D01*
X11Y216D02*
X20Y216D01*
X11Y215D02*
X20Y215D01*
X11Y214D02*
X20Y214D01*
X11Y213D02*
X20Y213D01*
X11Y212D02*
X20Y212D01*
X11Y211D02*
X20Y211D01*
X11Y210D02*
X20Y210D01*
X11Y209D02*
X20Y209D01*
X11Y208D02*
X20Y208D01*
X11Y207D02*
X20Y207D01*
X11Y206D02*
X20Y206D01*
X11Y205D02*
X20Y205D01*
X11Y204D02*
X20Y204D01*
X11Y203D02*
X20Y203D01*
X11Y202D02*
X20Y202D01*
X11Y201D02*
X20Y201D01*
X11Y200D02*
X20Y200D01*
X11Y199D02*
X20Y199D01*
X11Y198D02*
X20Y198D01*
X11Y197D02*
X20Y197D01*
X11Y196D02*
X20Y196D01*
X11Y195D02*
X20Y195D01*
X11Y194D02*
X20Y194D01*
X11Y193D02*
X20Y193D01*
X11Y192D02*
X20Y192D01*
X11Y191D02*
X20Y191D01*
X11Y190D02*
X20Y190D01*
X11Y189D02*
X20Y189D01*
X11Y188D02*
X20Y188D01*
X11Y187D02*
X20Y187D01*
X11Y186D02*
X20Y186D01*
X11Y185D02*
X20Y185D01*
X11Y184D02*
X20Y184D01*
X11Y183D02*
X20Y183D01*
X11Y182D02*
X20Y182D01*
X11Y181D02*
X20Y181D01*
X11Y180D02*
X20Y180D01*
X11Y179D02*
X20Y179D01*
X11Y178D02*
X20Y178D01*
X11Y177D02*
X20Y177D01*
X11Y176D02*
X20Y176D01*
X11Y175D02*
X20Y175D01*
X11Y174D02*
X20Y174D01*
X11Y173D02*
X20Y173D01*
X11Y172D02*
X20Y172D01*
X11Y171D02*
X20Y171D01*
X11Y170D02*
X20Y170D01*
X11Y169D02*
X20Y169D01*
X11Y168D02*
X20Y168D01*
X11Y167D02*
X20Y167D01*
X11Y166D02*
X20Y166D01*
X11Y165D02*
X20Y165D01*
X11Y164D02*
X20Y164D01*
X11Y163D02*
X20Y163D01*
X11Y162D02*
X20Y162D01*
X11Y161D02*
X20Y161D01*
X11Y160D02*
X20Y160D01*
X11Y159D02*
X20Y159D01*
X11Y158D02*
X20Y158D01*
X11Y157D02*
X20Y157D01*
X11Y156D02*
X20Y156D01*
X11Y155D02*
X20Y155D01*
X11Y154D02*
X20Y154D01*
X11Y153D02*
X20Y153D01*
X11Y152D02*
X20Y152D01*
X11Y151D02*
X20Y151D01*
X11Y150D02*
X20Y150D01*
X11Y149D02*
X20Y149D01*
X11Y148D02*
X20Y148D01*
X11Y147D02*
X20Y147D01*
X11Y146D02*
X20Y146D01*
X11Y145D02*
X20Y145D01*
X11Y144D02*
X20Y144D01*
X11Y143D02*
X20Y143D01*
X11Y142D02*
X20Y142D01*
X11Y141D02*
X20Y141D01*
X11Y140D02*
X20Y140D01*
X11Y139D02*
X20Y139D01*
X11Y138D02*
X20Y138D01*
X11Y137D02*
X20Y137D01*
X11Y136D02*
X20Y136D01*
X11Y135D02*
X20Y135D01*
X11Y134D02*
X20Y134D01*
X11Y133D02*
X20Y133D01*
X11Y132D02*
X20Y132D01*
X11Y131D02*
X20Y131D01*
X11Y130D02*
X20Y130D01*
X11Y129D02*
X20Y129D01*
X11Y128D02*
X20Y128D01*
X11Y127D02*
X20Y127D01*
X11Y126D02*
X20Y126D01*
X11Y125D02*
X20Y125D01*
X11Y124D02*
X20Y124D01*
X11Y123D02*
X20Y123D01*
X11Y122D02*
X20Y122D01*
X11Y121D02*
X20Y121D01*
X11Y120D02*
X20Y120D01*
X11Y119D02*
X20Y119D01*
X11Y118D02*
X20Y118D01*
X11Y117D02*
X20Y117D01*
X11Y116D02*
X20Y116D01*
X11Y115D02*
X20Y115D01*
X11Y114D02*
X20Y114D01*
X11Y113D02*
X20Y113D01*
X11Y112D02*
X20Y112D01*
X11Y111D02*
X20Y111D01*
X11Y110D02*
X20Y110D01*
X11Y109D02*
X20Y109D01*
X11Y108D02*
X20Y108D01*
X11Y107D02*
X20Y107D01*
X11Y106D02*
X20Y106D01*
X11Y105D02*
X20Y105D01*
X11Y104D02*
X20Y104D01*
X11Y103D02*
X20Y103D01*
X11Y102D02*
X20Y102D01*
X11Y101D02*
X20Y101D01*
X11Y100D02*
X20Y100D01*
X11Y99D02*
X20Y99D01*
X11Y98D02*
X20Y98D01*
X11Y97D02*
X20Y97D01*
X11Y96D02*
X20Y96D01*
X11Y95D02*
X20Y95D01*
X11Y94D02*
X20Y94D01*
X11Y93D02*
X20Y93D01*
X11Y92D02*
X20Y92D01*
X11Y91D02*
X20Y91D01*
X11Y90D02*
X20Y90D01*
X11Y89D02*
X20Y89D01*
X11Y88D02*
X20Y88D01*
X11Y87D02*
X20Y87D01*
X11Y86D02*
X20Y86D01*
X11Y85D02*
X20Y85D01*
X11Y84D02*
X20Y84D01*
X11Y83D02*
X20Y83D01*
X11Y82D02*
X20Y82D01*
X11Y81D02*
X20Y81D01*
X11Y80D02*
X20Y80D01*
X11Y79D02*
X20Y79D01*
X11Y78D02*
X20Y78D01*
X11Y77D02*
X20Y77D01*
X11Y76D02*
X20Y76D01*
X11Y75D02*
X20Y75D01*
X11Y74D02*
X20Y74D01*
X11Y73D02*
X20Y73D01*
X11Y72D02*
X20Y72D01*
X11Y71D02*
X20Y71D01*
X11Y70D02*
X20Y70D01*
X11Y69D02*
X20Y69D01*
X11Y68D02*
X20Y68D01*
X11Y67D02*
X20Y67D01*
X11Y66D02*
X20Y66D01*
X11Y65D02*
X20Y65D01*
X11Y64D02*
X20Y64D01*
X11Y63D02*
X20Y63D01*
X11Y62D02*
X20Y62D01*
X11Y61D02*
X20Y61D01*
X11Y60D02*
X20Y60D01*
X11Y59D02*
X20Y59D01*
X11Y58D02*
X20Y58D01*
X11Y57D02*
X20Y57D01*
X11Y56D02*
X20Y56D01*
X11Y55D02*
X20Y55D01*
X11Y54D02*
X20Y54D01*
X11Y53D02*
X20Y53D01*
X11Y52D02*
X20Y52D01*
X145Y52D02*
X161Y52D01*
X11Y51D02*
X20Y51D01*
X140Y51D02*
X166Y51D01*
X11Y50D02*
X20Y50D01*
X136Y50D02*
X170Y50D01*
X11Y49D02*
X20Y49D01*
X134Y49D02*
X173Y49D01*
X11Y48D02*
X20Y48D01*
X131Y48D02*
X176Y48D01*
X11Y47D02*
X20Y47D01*
X129Y47D02*
X178Y47D01*
X11Y46D02*
X20Y46D01*
X127Y46D02*
X180Y46D01*
X11Y45D02*
X20Y45D01*
X125Y45D02*
X182Y45D01*
X11Y44D02*
X20Y44D01*
X123Y44D02*
X183Y44D01*
X11Y43D02*
X20Y43D01*
X121Y43D02*
X185Y43D01*
X11Y42D02*
X20Y42D01*
X120Y42D02*
X147Y42D01*
X159Y42D02*
X187Y42D01*
X11Y41D02*
X20Y41D01*
X119Y41D02*
X141Y41D01*
X165Y41D02*
X188Y41D01*
X11Y40D02*
X20Y40D01*
X117Y40D02*
X138Y40D01*
X169Y40D02*
X189Y40D01*
X11Y39D02*
X20Y39D01*
X116Y39D02*
X135Y39D01*
X172Y39D02*
X191Y39D01*
X11Y38D02*
X20Y38D01*
X115Y38D02*
X133Y38D01*
X174Y38D02*
X192Y38D01*
X11Y37D02*
X20Y37D01*
X114Y37D02*
X131Y37D01*
X176Y37D02*
X193Y37D01*
X11Y36D02*
X20Y36D01*
X113Y36D02*
X129Y36D01*
X178Y36D02*
X194Y36D01*
X11Y35D02*
X20Y35D01*
X112Y35D02*
X127Y35D01*
X180Y35D02*
X195Y35D01*
X11Y34D02*
X20Y34D01*
X111Y34D02*
X125Y34D01*
X181Y34D02*
X196Y34D01*
X2040Y34D02*
X2054Y34D01*
X11Y33D02*
X20Y33D01*
X110Y33D02*
X124Y33D01*
X182Y33D02*
X197Y33D01*
X2039Y33D02*
X2053Y33D01*
X11Y32D02*
X20Y32D01*
X109Y32D02*
X123Y32D01*
X184Y32D02*
X198Y32D01*
X2038Y32D02*
X2052Y32D01*
X11Y31D02*
X20Y31D01*
X108Y31D02*
X122Y31D01*
X185Y31D02*
X199Y31D01*
X2037Y31D02*
X2051Y31D01*
X11Y30D02*
X20Y30D01*
X107Y30D02*
X120Y30D01*
X186Y30D02*
X199Y30D01*
X2036Y30D02*
X2049Y30D01*
X11Y29D02*
X20Y29D01*
X106Y29D02*
X119Y29D01*
X187Y29D02*
X200Y29D01*
X2035Y29D02*
X2048Y29D01*
X11Y28D02*
X20Y28D01*
X106Y28D02*
X118Y28D01*
X188Y28D02*
X201Y28D01*
X2035Y28D02*
X2047Y28D01*
X11Y27D02*
X20Y27D01*
X105Y27D02*
X117Y27D01*
X189Y27D02*
X202Y27D01*
X2034Y27D02*
X2046Y27D01*
X11Y26D02*
X20Y26D01*
X104Y26D02*
X116Y26D01*
X190Y26D02*
X202Y26D01*
X2033Y26D02*
X2045Y26D01*
X11Y25D02*
X20Y25D01*
X104Y25D02*
X115Y25D01*
X191Y25D02*
X203Y25D01*
X2033Y25D02*
X2045Y25D01*
X11Y24D02*
X20Y24D01*
X103Y24D02*
X115Y24D01*
X192Y24D02*
X203Y24D01*
X2032Y24D02*
X2044Y24D01*
X11Y23D02*
X20Y23D01*
X103Y23D02*
X114Y23D01*
X193Y23D02*
X204Y23D01*
X2032Y23D02*
X2043Y23D01*
X11Y22D02*
X20Y22D01*
X102Y22D02*
X113Y22D01*
X193Y22D02*
X205Y22D01*
X2031Y22D02*
X2042Y22D01*
X11Y21D02*
X20Y21D01*
X101Y21D02*
X112Y21D01*
X194Y21D02*
X205Y21D01*
X2030Y21D02*
X2041Y21D01*
X11Y20D02*
X20Y20D01*
X101Y20D02*
X112Y20D01*
X195Y20D02*
X206Y20D01*
X2030Y20D02*
X2041Y20D01*
X11Y19D02*
X20Y19D01*
X100Y19D02*
X111Y19D01*
X195Y19D02*
X206Y19D01*
X2029Y19D02*
X2040Y19D01*
X11Y18D02*
X20Y18D01*
X100Y18D02*
X110Y18D01*
X196Y18D02*
X207Y18D01*
X2029Y18D02*
X2040Y18D01*
X11Y17D02*
X20Y17D01*
X99Y17D02*
X110Y17D01*
X197Y17D02*
X207Y17D01*
X2029Y17D02*
X2039Y17D01*
X11Y16D02*
X20Y16D01*
X99Y16D02*
X109Y16D01*
X197Y16D02*
X207Y16D01*
X2028Y16D02*
X2038Y16D01*
X11Y15D02*
X20Y15D01*
X99Y15D02*
X109Y15D01*
X198Y15D02*
X208Y15D01*
X2028Y15D02*
X2038Y15D01*
X11Y14D02*
X20Y14D01*
X98Y14D02*
X108Y14D01*
X198Y14D02*
X208Y14D01*
X2027Y14D02*
X2037Y14D01*
X11Y13D02*
X20Y13D01*
X98Y13D02*
X108Y13D01*
X199Y13D02*
X209Y13D01*
X2027Y13D02*
X2037Y13D01*
X11Y12D02*
X20Y12D01*
X98Y12D02*
X107Y12D01*
X199Y12D02*
X209Y12D01*
X2027Y12D02*
X2036Y12D01*
X11Y11D02*
X20Y11D01*
X97Y11D02*
X107Y11D01*
X199Y11D02*
X209Y11D01*
X2026Y11D02*
X2036Y11D01*
X11Y10D02*
X20Y10D01*
X97Y10D02*
X107Y10D01*
X200Y10D02*
X210Y10D01*
X2026Y10D02*
X2036Y10D01*
X11Y9D02*
X20Y9D01*
X97Y9D02*
X106Y9D01*
X200Y9D02*
X210Y9D01*
X2026Y9D02*
X2035Y9D01*
X11Y8D02*
X20Y8D01*
X96Y8D02*
X106Y8D01*
X201Y8D02*
X210Y8D01*
X2025Y8D02*
X2035Y8D01*
X11Y7D02*
X20Y7D01*
X96Y7D02*
X106Y7D01*
X201Y7D02*
X210Y7D01*
X2025Y7D02*
X2035Y7D01*
X11Y6D02*
X20Y6D01*
X96Y6D02*
X105Y6D01*
X201Y6D02*
X211Y6D01*
X2025Y6D02*
X2035Y6D01*
X11Y5D02*
X20Y5D01*
X96Y5D02*
X105Y5D01*
X201Y5D02*
X211Y5D01*
X2025Y5D02*
X2034Y5D01*
X11Y4D02*
X20Y4D01*
X95Y4D02*
X105Y4D01*
X202Y4D02*
X211Y4D01*
X2025Y4D02*
X2034Y4D01*
X11Y3D02*
X20Y3D01*
X95Y3D02*
X105Y3D01*
X202Y3D02*
X211Y3D01*
X2024Y3D02*
X2034Y3D01*
X11Y2D02*
X20Y2D01*
X95Y2D02*
X105Y2D01*
X202Y2D02*
X211Y2D01*
X2024Y2D02*
X2034Y2D01*
X11Y1D02*
X20Y1D01*
X95Y1D02*
X104Y1D01*
X202Y1D02*
X212Y1D01*
X2024Y1D02*
X2034Y1D01*
X11Y0D02*
X20Y0D01*
X95Y0D02*
X104Y0D01*
X202Y0D02*
X212Y0D01*
X2024Y0D02*
X2033Y0D01*
D02*
G04 End of Silk1*
M02*